<?xml version="1.0" encoding="UTF-8"?>
<svg xmlns="http://www.w3.org/2000/svg" width="865.76" height="682.89" viewBox="0 0 865.76 682.89">
  <rect x="133.49" y="71.76" width="139.66" height="202.43" fill="#e0e0e0"></rect>
  <rect x="126.48" y="71.76" width="139.66" height="202.43" fill="#f5f5f5"></rect>
  <rect x="143.84" y="93.68" width="104.97" height="158.59" fill="#fff"></rect>
  <path d="M248.79,252.27V240.55c0-7.6,0-18.67-.08-32.67,0-28-.1-67.58-.18-114.2l.34.35H143.94l.38-.38V252.24l-.3-.3,76.4.15,21.1.08H220.61l-76.59.17h-.31V93.06H249.4v.34c0,46.73-.13,86.41-.18,114.43,0,14,0,25-.1,32.59v10.85A1.85,1.85,0,0,1,248.79,252.27Z" fill="#e0e0e0"></path>
  <path d="M266.54,71.76a24.06,24.06,0,0,1-2.48,3.61c-1.65,2.18-3.93,5.13-6.6,8.24s-5.07,6-6.89,8a24.61,24.61,0,0,1-3.08,3.13,25.18,25.18,0,0,1,2.67-3.49L256.89,83l6.7-8.24A27.25,27.25,0,0,1,266.54,71.76Z" fill="#e0e0e0"></path>
  <path d="M249.34,251.76a129.9,129.9,0,0,0,18.31,22.9" fill="#fff"></path>
  <path d="M267.65,274.66a20.08,20.08,0,0,1-3.2-2.91,102.07,102.07,0,0,1-13-16.23,20.49,20.49,0,0,1-2.12-3.76,29.81,29.81,0,0,1,2.57,3.46c1.53,2.16,3.71,5.11,6.23,8.24s4.94,5.92,6.71,7.9A31.68,31.68,0,0,1,267.65,274.66Z" fill="#e0e0e0"></path>
  <path d="M126.47,274l18.29-22.59" fill="#fff"></path>
  <path d="M144.76,251.46A139.4,139.4,0,0,1,135.91,263a139.26,139.26,0,0,1-9.44,11,137.25,137.25,0,0,1,8.85-11.54A137.19,137.19,0,0,1,144.76,251.46Z" fill="#e0e0e0"></path>
  <path d="M126.48,71.76a125.25,125.25,0,0,1,8.89,10.62,125.85,125.85,0,0,1,8.24,11.09,130.62,130.62,0,0,1-8.83-10.68A123.67,123.67,0,0,1,126.48,71.76Z" fill="#e0e0e0"></path>
  <rect x="180.95" y="125.89" width="35.14" height="99.79" fill="#e0e0e0"></rect>
  <rect x="51.02" y="335.48" width="46.65" height="46.65" fill="#f5f5f5"></rect>
  <rect x="51.02" y="392.76" width="46.65" height="46.65" fill="#f5f5f5"></rect>
  <rect x="105.01" y="335.48" width="46.65" height="46.65" fill="#f5f5f5"></rect>
  <rect x="105.01" y="392.76" width="46.65" height="46.65" fill="#f5f5f5"></rect>
  <rect x="158.12" y="335.48" width="46.65" height="46.65" fill="#f5f5f5"></rect>
  <rect x="158.12" y="392.76" width="46.65" height="46.65" fill="#f5f5f5"></rect>
  <rect x="213.57" y="335.48" width="46.65" height="46.65" fill="#f5f5f5"></rect>
  <rect x="213.57" y="392.76" width="46.65" height="46.65" fill="#f5f5f5"></rect>
  <rect x="269.02" y="335.48" width="46.65" height="46.65" fill="#f5f5f5"></rect>
  <rect x="269.02" y="392.76" width="46.65" height="46.65" fill="#f5f5f5"></rect>
  <rect x="324.47" y="335.48" width="46.65" height="46.65" fill="#f5f5f5"></rect>
  <rect x="324.47" y="392.76" width="46.65" height="46.65" fill="#f5f5f5"></rect>
  <rect x="379.92" y="335.48" width="46.65" height="46.65" fill="#f5f5f5"></rect>
  <rect x="379.92" y="392.76" width="46.65" height="46.65" fill="#f5f5f5"></rect>
  <rect x="435.37" y="335.48" width="46.65" height="46.65" fill="#f5f5f5"></rect>
  <rect x="435.37" y="392.76" width="46.65" height="46.65" fill="#f5f5f5"></rect>
  <rect x="490.82" y="335.48" width="46.65" height="46.65" fill="#f5f5f5"></rect>
  <rect x="490.82" y="392.76" width="46.65" height="46.65" fill="#f5f5f5"></rect>
  <rect x="546.27" y="335.48" width="46.65" height="46.65" fill="#f5f5f5"></rect>
  <rect x="546.27" y="392.76" width="46.65" height="46.65" fill="#f5f5f5"></rect>
  <rect x="601.74" y="335.48" width="46.65" height="46.65" fill="#f5f5f5"></rect>
  <rect x="601.74" y="392.76" width="46.65" height="46.65" fill="#f5f5f5"></rect>
  <rect x="657.19" y="335.48" width="46.65" height="46.65" fill="#f5f5f5"></rect>
  <rect x="657.19" y="392.76" width="46.65" height="46.65" fill="#f5f5f5"></rect>
  <rect x="712.64" y="335.48" width="46.65" height="46.65" fill="#f5f5f5"></rect>
  <rect x="712.64" y="392.76" width="46.65" height="46.65" fill="#f5f5f5"></rect>
  <rect x="768.09" y="335.48" width="46.65" height="46.65" fill="#f5f5f5"></rect>
  <rect x="768.09" y="392.76" width="46.65" height="46.65" fill="#f5f5f5"></rect>
  <rect x="336.58" y="44.36" width="199.86" height="259.17" fill="#ebebeb"></rect>
  <path d="M350.22,241a1.72,1.72,0,0,1,1,.15,3.29,3.29,0,0,1,1.65,2.27,3,3,0,0,1-.28,2.1,3.58,3.58,0,0,1-1.93,1.64,3.65,3.65,0,0,1-2.9,0,4.86,4.86,0,0,1-2.29-2.34,8.14,8.14,0,0,1,3.82-10,4.51,4.51,0,0,1,2.19-.47,4.42,4.42,0,0,1,2.2.72,7.65,7.65,0,0,1,2.75,3.73,15.67,15.67,0,0,1,1,4.69,17.5,17.5,0,0,1-2.3,9.7,62.68,62.68,0,0,1-6,8,23.68,23.68,0,0,0-4.53,7.84,11,11,0,0,0,.51,8,6.29,6.29,0,0,0,5.65,3.48,5.14,5.14,0,0,0,2.87-.91,4,4,0,0,0,1.52-2.17,5.4,5.4,0,0,0-.78-4.21,3.58,3.58,0,0,0-2.19-1.65,3,3,0,0,0-.73,0h0a2.42,2.42,0,0,1,.76,0,3.66,3.66,0,0,1,2.38,1.65,5.52,5.52,0,0,1,.9,4.44,4.32,4.32,0,0,1-1.64,2.4,5.52,5.52,0,0,1-3.1,1,6.67,6.67,0,0,1-6.15-3.69A11.42,11.42,0,0,1,344,269a23.89,23.89,0,0,1,4.6-8.08,60.34,60.34,0,0,0,5.91-7.87,16.84,16.84,0,0,0,2.23-9.35,14.69,14.69,0,0,0-.89-4.5,7.13,7.13,0,0,0-2.51-3.46,3.78,3.78,0,0,0-3.8-.23,7.67,7.67,0,0,0-3.65,9.28,4.71,4.71,0,0,0,2.05,2.16,3.41,3.41,0,0,0,4.37-1.34,2.72,2.72,0,0,0,.31-1.89,3.06,3.06,0,0,0-1.55-2.2A4.56,4.56,0,0,0,350.22,241Z" fill="#e0e0e0"></path>
  <path d="M352,217.49a1.7,1.7,0,0,1-1-.15,3.27,3.27,0,0,1-1.74-2.27,3,3,0,0,1,.29-2.11,3.52,3.52,0,0,1,1.91-1.65,3.7,3.7,0,0,1,2.92,0,5,5,0,0,1,2.28,2.32,7.45,7.45,0,0,1-.76,7.19,7.59,7.59,0,0,1-3.07,2.82,4.31,4.31,0,0,1-4.38-.25,7.8,7.8,0,0,1-2.75-3.72,16.52,16.52,0,0,1-1-4.7,17.37,17.37,0,0,1,2.31-9.69,60.37,60.37,0,0,1,6-8,23.63,23.63,0,0,0,4.53-7.85,11,11,0,0,0-.47-7.76,6.31,6.31,0,0,0-5.67-3.48,5.14,5.14,0,0,0-2.86.91,4,4,0,0,0-1.51,2.16,5.25,5.25,0,0,0,.76,4.2,3.62,3.62,0,0,0,2.19,1.65,3.05,3.05,0,0,0,.74,0h0a2.42,2.42,0,0,1-.76,0,3.66,3.66,0,0,1-2.37-1.65,5.46,5.46,0,0,1-.91-4.43,4.17,4.17,0,0,1,1.65-2.41,5.47,5.47,0,0,1,3.1-1,6.87,6.87,0,0,1,3.46.87,6.6,6.6,0,0,1,2.69,2.82,11.57,11.57,0,0,1,.61,8.34,23.93,23.93,0,0,1-4.62,8.1,61.28,61.28,0,0,0-5.9,7.88,16.72,16.72,0,0,0-2.24,9.33,14.84,14.84,0,0,0,.91,4.51,7.25,7.25,0,0,0,2.48,3.46,3.83,3.83,0,0,0,3.83.22,7.2,7.2,0,0,0,2.83-2.59,6.92,6.92,0,0,0,.81-6.68,4.55,4.55,0,0,0-2-2.16,3.34,3.34,0,0,0-2.61-.13,3.47,3.47,0,0,0-1.78,1.47,2.73,2.73,0,0,0-.29,1.9,3.05,3.05,0,0,0,1.53,2.19A4.7,4.7,0,0,0,352,217.49Z" fill="#e0e0e0"></path>
  <path d="M353.12,228.81a2,2,0,1,1-2-2,2,2,0,0,1,2,2Z" fill="#e0e0e0"></path>
  <path d="M354,174.67a2,2,0,1,1-2.06-2h0A2,2,0,0,1,354,174.67Z" fill="#e0e0e0"></path>
  <path d="M351.11,108.06a5,5,0,0,0,.93-.28,3.08,3.08,0,0,0,1.55-2.2,2.77,2.77,0,0,0-.31-1.91,3.41,3.41,0,0,0-4.38-1.32,4.52,4.52,0,0,0-2,2.16,7,7,0,0,0,.81,6.69,7.17,7.17,0,0,0,2.8,2.61,3.82,3.82,0,0,0,3.81-.23,7.25,7.25,0,0,0,2.51-3.48,16.19,16.19,0,0,0,.89-4.52,17,17,0,0,0-2.23-9.36,64.19,64.19,0,0,0-5.92-7.89,24.29,24.29,0,0,1-4.6-8.11,11.56,11.56,0,0,1,.6-8.36,6.58,6.58,0,0,1,6.15-3.71,5.44,5.44,0,0,1,3.09,1,4.34,4.34,0,0,1,1.65,2.42,5.64,5.64,0,0,1-.9,4.46,3.66,3.66,0,0,1-2.39,1.64,1.94,1.94,0,0,1-.76,0h0a1.8,1.8,0,0,0,.73,0,3.56,3.56,0,0,0,2.19-1.64,5.31,5.31,0,0,0,.76-4.21,3.87,3.87,0,0,0-1.52-2.17,4.93,4.93,0,0,0-2.85-.91A6.25,6.25,0,0,0,346,72.25a11,11,0,0,0-.49,8,23.33,23.33,0,0,0,4.53,7.86,63,63,0,0,1,6,7.91,17.48,17.48,0,0,1,2.31,9.71,15.93,15.93,0,0,1-1,4.72,7.89,7.89,0,0,1-2.73,3.71,4.49,4.49,0,0,1-2.21.72,4.43,4.43,0,0,1-2.2-.48,8.15,8.15,0,0,1-3.82-10,4.89,4.89,0,0,1,2.28-2.32,3.64,3.64,0,0,1,2.91-.1,3.52,3.52,0,0,1,1.93,1.65,3,3,0,0,1,.28,2.11,3.18,3.18,0,0,1-1.73,2.24A1.72,1.72,0,0,1,351.11,108.06Z" fill="#e0e0e0"></path>
  <path d="M351.72,131.69a4.87,4.87,0,0,0-.94.28,3.08,3.08,0,0,0-1.55,2.2,2.66,2.66,0,0,0,.31,1.91,3.41,3.41,0,0,0,4.38,1.33,4.55,4.55,0,0,0,2.05-2.17,7.72,7.72,0,0,0-3.66-9.3,3.81,3.81,0,0,0-3.83.25,7.14,7.14,0,0,0-2.48,3.46,14.81,14.81,0,0,0-.89,4.52,16.84,16.84,0,0,0,2.22,9.36,61.52,61.52,0,0,0,5.92,7.89,24.29,24.29,0,0,1,4.6,8.11,11.62,11.62,0,0,1-.61,8.38,6.72,6.72,0,0,1-2.67,2.82,6.92,6.92,0,0,1-3.48.87,5.5,5.5,0,0,1-3.1-1,4.44,4.44,0,0,1-1.65-2.42,5.61,5.61,0,0,1,.91-4.46,3.65,3.65,0,0,1,2.37-1.64,1.94,1.94,0,0,1,.76,0h.08a2.18,2.18,0,0,0-.72,0,3.61,3.61,0,0,0-2.2,1.64,5.31,5.31,0,0,0-.75,4.21,3.83,3.83,0,0,0,1.5,2.17,4.91,4.91,0,0,0,2.86.91,6.2,6.2,0,0,0,5.66-3.49,11,11,0,0,0,.51-7.95,23.33,23.33,0,0,0-4.53-7.86,64.33,64.33,0,0,1-6-7.91,17.54,17.54,0,0,1-2.29-9.71,16.56,16.56,0,0,1,.94-4.72,8,8,0,0,1,2.75-3.71,4.49,4.49,0,0,1,2.21-.72,4.54,4.54,0,0,1,2.2.48,8.24,8.24,0,0,1,3.82,10.13,4.93,4.93,0,0,1-2.29,2.33,3.76,3.76,0,0,1-4.83-1.55,2.88,2.88,0,0,1-.28-2.11,3.32,3.32,0,0,1,1.73-2.28A1.84,1.84,0,0,1,351.72,131.69Z" fill="#e0e0e0"></path>
  <path d="M354,120.34a2,2,0,1,0-2.08,2H352A2,2,0,0,0,354,120.34Z" fill="#e0e0e0"></path>
  <path d="M518.91,241a1.63,1.63,0,0,1,1,.15,3.27,3.27,0,0,1,1.74,2.27,3,3,0,0,1-.28,2.1,3.55,3.55,0,0,1-1.93,1.64,3.65,3.65,0,0,1-2.9,0,5,5,0,0,1-2.29-2.34,8.1,8.1,0,0,1,3.83-10,4.49,4.49,0,0,1,2.19-.47,4.39,4.39,0,0,1,2.19.72,7.65,7.65,0,0,1,2.75,3.73,16.39,16.39,0,0,1,1,4.69,17.42,17.42,0,0,1-2.31,9.7,60.18,60.18,0,0,1-6,8,23.66,23.66,0,0,0-4.52,7.84,10.93,10.93,0,0,0,.51,8,6.29,6.29,0,0,0,5.66,3.48,5.18,5.18,0,0,0,2.85-.91,4,4,0,0,0,1.52-2.17,5.35,5.35,0,0,0-.76-4.21,3.57,3.57,0,0,0-2.2-1.65,2.89,2.89,0,0,0-.72,0h0a2.42,2.42,0,0,1,.76,0,3.68,3.68,0,0,1,2.38,1.65,5.6,5.6,0,0,1,.92,4.44,4.27,4.27,0,0,1-1.65,2.4,5.43,5.43,0,0,1-3.08,1,6.92,6.92,0,0,1-3.48-.87,6.83,6.83,0,0,1-2.69-2.82,11.57,11.57,0,0,1-.61-8.36,24.11,24.11,0,0,1,4.62-8.08,64.75,64.75,0,0,0,5.92-7.87,17,17,0,0,0,2.22-9.35,14.71,14.71,0,0,0-.91-4.5,7.07,7.07,0,0,0-2.48-3.46,3.8,3.8,0,0,0-3.81-.23,7.14,7.14,0,0,0-2.85,2.6,6.91,6.91,0,0,0-.81,6.59,4.55,4.55,0,0,0,2,2.16,3.44,3.44,0,0,0,4.39-1.33,2.73,2.73,0,0,0,.31-1.9,3.09,3.09,0,0,0-1.55-2.19A4.46,4.46,0,0,0,518.91,241Z" fill="#e0e0e0"></path>
  <path d="M520.65,217.49a1.72,1.72,0,0,1-1-.15,3.28,3.28,0,0,1-1.73-2.27,3,3,0,0,1,.28-2.11,3.8,3.8,0,0,1,4.83-1.55,5,5,0,0,1,2.29,2.32,7.43,7.43,0,0,1-.78,7.19,7.51,7.51,0,0,1-3,2.82,4.65,4.65,0,0,1-2.2.48,4.5,4.5,0,0,1-2.19-.73,7.67,7.67,0,0,1-2.75-3.72,15.8,15.8,0,0,1-1-4.7,17.35,17.35,0,0,1,2.29-9.69,61.33,61.33,0,0,1,6-8,23.29,23.29,0,0,0,4.53-7.85,10.93,10.93,0,0,0-.51-7.93,6.31,6.31,0,0,0-5.65-3.48,5.22,5.22,0,0,0-2.87.91,3.88,3.88,0,0,0-1.5,2.16,5.24,5.24,0,0,0,.76,4.2,3.54,3.54,0,0,0,2.19,1.65,2.17,2.17,0,0,0,.72,0h0a2.3,2.3,0,0,1-.74,0,3.61,3.61,0,0,1-2.39-1.65,5.54,5.54,0,0,1-.91-4.43,4.38,4.38,0,0,1,1.65-2.41,5.59,5.59,0,0,1,3.1-1,6.83,6.83,0,0,1,3.48.88,6.61,6.61,0,0,1,2.67,2.82,11.41,11.41,0,0,1,.61,8.34,23.93,23.93,0,0,1-4.6,8.09,64.09,64.09,0,0,0-5.92,7.88,16.83,16.83,0,0,0-2.22,9.33,15.57,15.57,0,0,0,.89,4.52,7.22,7.22,0,0,0,2.5,3.46,3.8,3.8,0,0,0,3.81.21,7.66,7.66,0,0,0,3.66-9.26,4.54,4.54,0,0,0-2.06-2.16,3.27,3.27,0,0,0-2.6-.13,3.31,3.31,0,0,0-1.77,1.46,2.63,2.63,0,0,0-.31,1.9,3,3,0,0,0,1.55,2.19A4.37,4.37,0,0,0,520.65,217.49Z" fill="#e0e0e0"></path>
  <path d="M521.89,228.81a2,2,0,1,1-2-2h0a2,2,0,0,1,2,2Z" fill="#e0e0e0"></path>
  <path d="M522.68,174.67a2,2,0,1,1-2-2,2,2,0,0,1,2,2Z" fill="#e0e0e0"></path>
  <path d="M519.78,108.06a5.29,5.29,0,0,0,1-.28,3.08,3.08,0,0,0,1.53-2.2,2.71,2.71,0,0,0-.3-1.91,3.42,3.42,0,0,0-4.38-1.32,4.52,4.52,0,0,0-2.05,2.16,7,7,0,0,0,.81,6.69,7.07,7.07,0,0,0,2.84,2.61,3.84,3.84,0,0,0,3.82-.23,7.26,7.26,0,0,0,2.49-3.48,15.79,15.79,0,0,0,.91-4.52,17,17,0,0,0-2.24-9.36,63.12,63.12,0,0,0-5.91-7.89,24.31,24.31,0,0,1-4.61-8.11,11.57,11.57,0,0,1,.61-8.36A6.59,6.59,0,0,1,517,69a6.91,6.91,0,0,1,3.47-.87,5.45,5.45,0,0,1,3.1,1,4.3,4.3,0,0,1,1.65,2.42,5.53,5.53,0,0,1-.91,4.46,3.59,3.59,0,0,1-2.37,1.64,1.94,1.94,0,0,1-.76,0h0a1.8,1.8,0,0,0,.73,0,3.53,3.53,0,0,0,2.19-1.64,5.32,5.32,0,0,0,.78-4.21,4,4,0,0,0-1.52-2.17,4.92,4.92,0,0,0-2.87-.91,6.23,6.23,0,0,0-5.65,3.49,11,11,0,0,0-.51,8,23.5,23.5,0,0,0,4.53,7.86A64.22,64.22,0,0,1,524.74,96a17.65,17.65,0,0,1,2.31,9.71,16.59,16.59,0,0,1-1,4.72,7.87,7.87,0,0,1-2.75,3.71,4.31,4.31,0,0,1-4.38.24,8.12,8.12,0,0,1-3.84-10,4.91,4.91,0,0,1,2.29-2.32,3.61,3.61,0,0,1,2.9-.1,3.56,3.56,0,0,1,1.93,1.65,3,3,0,0,1,.28,2.11,3.19,3.19,0,0,1-1.73,2.27A1.75,1.75,0,0,1,519.78,108.06Z" fill="#e0e0e0"></path>
  <path d="M520.39,131.69a5.08,5.08,0,0,0-.94.28,3.08,3.08,0,0,0-1.53,2.2,2.71,2.71,0,0,0,.3,1.91,3.32,3.32,0,0,0,1.78,1.45,3.27,3.27,0,0,0,2.6-.12,4.48,4.48,0,0,0,2-2.17,6.94,6.94,0,0,0-.8-6.69,7.12,7.12,0,0,0-2.86-2.61,3.75,3.75,0,0,0-3.8.25,7.19,7.19,0,0,0-2.51,3.46,15.5,15.5,0,0,0-.89,4.52,17,17,0,0,0,2.23,9.36,63.88,63.88,0,0,0,5.88,7.89,24.34,24.34,0,0,1,4.62,8.11,11.73,11.73,0,0,1-.61,8.38,6.85,6.85,0,0,1-2.67,2.82,7,7,0,0,1-3.48.87,5.47,5.47,0,0,1-3.1-1,4.3,4.3,0,0,1-1.65-2.42,5.53,5.53,0,0,1,.91-4.46,3.57,3.57,0,0,1,2.37-1.64,1.94,1.94,0,0,1,.76,0h0a2.18,2.18,0,0,0-.72,0,3.56,3.56,0,0,0-2.19,1.64,5.31,5.31,0,0,0-.76,4.21,4,4,0,0,0,1.51,2.17,5,5,0,0,0,2.86.91,6.25,6.25,0,0,0,5.67-3.49,11,11,0,0,0,.49-7.95,23.31,23.31,0,0,0-4.52-7.86,61.42,61.42,0,0,1-5.91-7.91,17.48,17.48,0,0,1-2.31-9.71,16.24,16.24,0,0,1,1-4.72,7.77,7.77,0,0,1,2.76-3.71,4.39,4.39,0,0,1,2.19-.72,4.5,4.5,0,0,1,2.19.48,7.54,7.54,0,0,1,3.07,2.83,7.46,7.46,0,0,1,.76,7.19,4.93,4.93,0,0,1-2.28,2.32,3.58,3.58,0,0,1-2.92.1,3.48,3.48,0,0,1-1.91-1.65,3.09,3.09,0,0,1-.3-2.11,3.31,3.31,0,0,1,1.75-2.27A1.69,1.69,0,0,1,520.39,131.69Z" fill="#e0e0e0"></path>
  <path d="M522.68,120.34a2,2,0,1,0-2,2h0A2,2,0,0,0,522.68,120.34Z" fill="#e0e0e0"></path>
  <path d="M422.64,289.08a4.59,4.59,0,0,0-.28-1,3.09,3.09,0,0,0-2.19-1.53,2.71,2.71,0,0,0-1.91.3,3.4,3.4,0,0,0-1.47,1.78,3.31,3.31,0,0,0,.13,2.6,4.54,4.54,0,0,0,2.18,2,6.94,6.94,0,0,0,6.69-.8,7.16,7.16,0,0,0,2.61-2.85,3.77,3.77,0,0,0-.25-3.81,7,7,0,0,0-3.46-2.49,15.21,15.21,0,0,0-4.52-.91,17,17,0,0,0-9.36,2.24,64.91,64.91,0,0,0-7.9,5.9,24,24,0,0,1-8.11,4.62,11.49,11.49,0,0,1-8.37-.61,6.67,6.67,0,0,1-3.69-6.15,5.5,5.5,0,0,1,1-3.1,4.35,4.35,0,0,1,2.42-1.65,5.58,5.58,0,0,1,4.45.91,3.63,3.63,0,0,1,1.65,2.38,2.36,2.36,0,0,1,0,.75v0a2.18,2.18,0,0,0,0-.72,3.58,3.58,0,0,0-1.65-2.21,5.34,5.34,0,0,0-4.22-.76,4,4,0,0,0-2.16,1.52,4.91,4.91,0,0,0-.9,2.87,6.21,6.21,0,0,0,3.49,5.65,11.09,11.09,0,0,0,8,.51,23.67,23.67,0,0,0,7.86-4.53,62.12,62.12,0,0,1,8-6,17.55,17.55,0,0,1,9.71-2.3,16.92,16.92,0,0,1,4.72,1,7.85,7.85,0,0,1,3.74,2.76,4.39,4.39,0,0,1,.72,2.19,4.49,4.49,0,0,1-.47,2.19,8.25,8.25,0,0,1-10,3.84,5,5,0,0,1-2.32-2.29,3.62,3.62,0,0,1-.1-2.92,3.52,3.52,0,0,1,1.65-1.91,3,3,0,0,1,2.11-.28,3.11,3.11,0,0,1,2.26,1.65A1.66,1.66,0,0,1,422.64,289.08Z" fill="#e0e0e0"></path>
  <path d="M479.5,288.47a1.62,1.62,0,0,1-.15,1,3.27,3.27,0,0,1-2.28,1.74,3,3,0,0,1-2.11-.29,3.63,3.63,0,0,1-1.65-1.91,3.79,3.79,0,0,1,.1-2.92,5,5,0,0,1,2.34-2.29,7.48,7.48,0,0,1,7.19.77,7.71,7.71,0,0,1,2.84,3.07,5,5,0,0,1,.47,2.19,4.59,4.59,0,0,1-.72,2.19,7.91,7.91,0,0,1-3.76,2.76,16.72,16.72,0,0,1-4.7,1,17.51,17.51,0,0,1-9.72-2.31,60.37,60.37,0,0,1-8-6,23.48,23.48,0,0,0-7.86-4.52,11.08,11.08,0,0,0-8,.5,6.32,6.32,0,0,0-3.49,5.67,5.18,5.18,0,0,0,.91,2.85,4,4,0,0,0,2.17,1.52,5.38,5.38,0,0,0,4.22-.76A3.47,3.47,0,0,0,449,290.5a2.74,2.74,0,0,0,.08-.75v0a2.42,2.42,0,0,1,0,.76,3.59,3.59,0,0,1-1.65,2.38,5.49,5.49,0,0,1-4.43.9,4.15,4.15,0,0,1-2.42-1.65,5.46,5.46,0,0,1-1-3.09,6.84,6.84,0,0,1,.89-3.48,6.66,6.66,0,0,1,2.82-2.67,11.49,11.49,0,0,1,8.37-.61,23.9,23.9,0,0,1,8.1,4.61,60.66,60.66,0,0,0,7.91,5.9,16.89,16.89,0,0,0,9.34,2.25,16.32,16.32,0,0,0,4.54-.89,7.42,7.42,0,0,0,3.46-2.51,3.77,3.77,0,0,0,.23-3.81,7.67,7.67,0,0,0-9.3-3.66,4.66,4.66,0,0,0-2.16,2.05,3.27,3.27,0,0,0-.13,2.6,3.32,3.32,0,0,0,1.45,1.78,3,3,0,0,0,4.39-2.17Z" fill="#e0e0e0"></path>
  <path d="M434.92,286.16a2,2,0,1,0,2.05,2,2,2,0,0,0-2.05-2Z" fill="#e0e0e0"></path>
  <path d="M499.34,286.16a2,2,0,1,0,2,2.06v0A2,2,0,0,0,499.34,286.16Z" fill="#e0e0e0"></path>
  <path d="M373.7,286.16a2,2,0,1,0,2.05,2A2,2,0,0,0,373.7,286.16Z" fill="#e0e0e0"></path>
  <path d="M422.64,59.51a3.91,3.91,0,0,0-.28-.94A3.11,3.11,0,0,0,420.17,57a2.66,2.66,0,0,0-1.91.32,3.27,3.27,0,0,0-1.47,1.78,3.31,3.31,0,0,0,.13,2.6,4.61,4.61,0,0,0,2.18,2.05,7.73,7.73,0,0,0,9.3-3.66,3.81,3.81,0,0,0-.25-3.83,7.2,7.2,0,0,0-3.46-2.49,16.26,16.26,0,0,0-4.52-.89,17,17,0,0,0-9.36,2.23,65.06,65.06,0,0,0-7.9,5.92,24.16,24.16,0,0,1-8.11,4.59,11.55,11.55,0,0,1-8.37-.59,6.7,6.7,0,0,1-3.69-6.16,5.45,5.45,0,0,1,1-3.1,4.44,4.44,0,0,1,2.42-1.65,5.59,5.59,0,0,1,4.45.91,3.61,3.61,0,0,1,1.65,2.37,2.42,2.42,0,0,1,0,.76v0a2.24,2.24,0,0,0,0-.73,3.58,3.58,0,0,0-1.65-2.19,5.34,5.34,0,0,0-4.22-.76,3.88,3.88,0,0,0-2.16,1.5,4.91,4.91,0,0,0-.9,2.87,6.21,6.21,0,0,0,3.38,5.69,11,11,0,0,0,7.94.51,23.53,23.53,0,0,0,7.86-4.54,65.81,65.81,0,0,1,8-6,17.44,17.44,0,0,1,9.71-2.29,16.09,16.09,0,0,1,4.71.94A7.85,7.85,0,0,1,428.69,56a4.37,4.37,0,0,1,.73,2.21,4.5,4.5,0,0,1-.48,2.19,8.24,8.24,0,0,1-10,3.83,5,5,0,0,1-2.33-2.29,3.77,3.77,0,0,1,1.55-4.83,3,3,0,0,1,2.11-.28,3.11,3.11,0,0,1,2.26,1.73A1.57,1.57,0,0,1,422.64,59.51Z" fill="#e0e0e0"></path>
  <path d="M479.5,58.9a1.74,1.74,0,0,1-.15,1,3.32,3.32,0,0,1-2.28,1.73,3.09,3.09,0,0,1-2.11-.28,3.72,3.72,0,0,1-1.65-1.93,3.79,3.79,0,0,1,.1-2.92,4.93,4.93,0,0,1,2.33-2.27,7.38,7.38,0,0,1,7.18.77,7.63,7.63,0,0,1,2.86,3.05,5.05,5.05,0,0,1,.47,2.19,4.67,4.67,0,0,1-.72,2.21,7.87,7.87,0,0,1-3.76,2.74,15.74,15.74,0,0,1-4.7,1,17.67,17.67,0,0,1-9.72-2.3,62.88,62.88,0,0,1-8-6,23.33,23.33,0,0,0-7.86-4.53,10.93,10.93,0,0,0-8,.51,6.29,6.29,0,0,0-3.49,5.65,5.1,5.1,0,0,0,.91,2.85,3.87,3.87,0,0,0,2.17,1.52,5.34,5.34,0,0,0,4.22-.76A3.42,3.42,0,0,0,449,60.93a2.56,2.56,0,0,0,.08-.73v0a2.36,2.36,0,0,1,0,.75,3.55,3.55,0,0,1-1.65,2.39,5.57,5.57,0,0,1-4.43.9,4.3,4.3,0,0,1-2.42-1.65,5.33,5.33,0,0,1-1-3.08,6.84,6.84,0,0,1,.89-3.48,6.69,6.69,0,0,1,2.82-2.68,11.55,11.55,0,0,1,8.37-.6,23.88,23.88,0,0,1,8.1,4.6,62.43,62.43,0,0,0,7.91,5.92A17,17,0,0,0,477,65.5a16.32,16.32,0,0,0,4.54-.89A7.24,7.24,0,0,0,485,62.1a3.77,3.77,0,0,0,.23-3.81,7.74,7.74,0,0,0-9.3-3.66,4.66,4.66,0,0,0-2.16,2,3.42,3.42,0,0,0,1.32,4.38,2.83,2.83,0,0,0,1.91.32,3.13,3.13,0,0,0,2.21-1.55A3,3,0,0,0,479.5,58.9Z" fill="#e0e0e0"></path>
  <path d="M434.92,56.61a2,2,0,1,0,2.05,2,2,2,0,0,0-2.05-2Z" fill="#e0e0e0"></path>
  <path d="M499.34,56.61a2,2,0,1,0,2,2,2,2,0,0,0-2-2Z" fill="#e0e0e0"></path>
  <path d="M373.7,56.61a2,2,0,1,0,2.05,2A2,2,0,0,0,373.7,56.61Z" fill="#e0e0e0"></path>
  <path d="M507.52,275.31V218.84c0-35.64-.1-86.19-.15-145.93l.3.3H365.58l.33-.33v202.4l-.27-.26,103.37.15h.17l-103.54.13h-.26V72.3H508.11v.6c0,59.8-.11,110.44-.15,146.12,0,17.82,0,31.9-.08,41.53v13.81A1.28,1.28,0,0,1,507.52,275.31Z" fill="#e0e0e0"></path>
  <path d="M536.4,44.53a44.91,44.91,0,0,0-5.21,2.9,57.85,57.85,0,0,0-10.49,9.89c-3.7,4.25-6.77,8.36-9.13,11.23a40.18,40.18,0,0,1-2.87,3.29,7.17,7.17,0,0,1-1.18,1.09,7.51,7.51,0,0,1,1-1.25c.65-.81,1.65-2,2.69-3.46,2.26-2.94,5.27-7.09,9-11.38a52.44,52.44,0,0,1,10.71-9.79,20.75,20.75,0,0,1,2.2-1.25l.9-.46c.3-.14.58-.22.83-.32A9.3,9.3,0,0,1,536.4,44.53Z" fill="#e0e0e0"></path>
  <path d="M537.07,304.74a9.12,9.12,0,0,1-1.1-1.22l-2.85-3.3c-2.43-2.85-5.87-6.71-9.89-10.75s-7.92-7.46-10.77-9.89l-3.41-2.83a7.9,7.9,0,0,1-1.2-1.11,8.68,8.68,0,0,1,1.37.89c.85.61,2.06,1.54,3.54,2.71A133.36,133.36,0,0,1,523.7,289a135.11,135.11,0,0,1,9.81,10.91c1.17,1.47,2.1,2.67,2.71,3.53A8,8,0,0,1,537.07,304.74Z" fill="#e0e0e0"></path>
  <path d="M336,304.36a7.66,7.66,0,0,1,.81-1.42c.54-.87,1.4-2.13,2.5-3.63a89.35,89.35,0,0,1,20.82-20.25c1.53-1.06,2.8-1.88,3.69-2.41a9.07,9.07,0,0,1,1.44-.77,7.69,7.69,0,0,1-1.29,1c-.86.6-2.09,1.47-3.58,2.58a108.13,108.13,0,0,0-11,9.36,109.84,109.84,0,0,0-9.67,10.79c-1.14,1.47-2.05,2.66-2.66,3.5A8.87,8.87,0,0,1,336,304.36Z" fill="#e0e0e0"></path>
  <path d="M336.53,44.53a9.45,9.45,0,0,1,1.21,1.07l3.11,3c2.64,2.55,6.37,6,10.49,9.77s7.79,7.3,10.36,9.89c1.27,1.32,2.3,2.41,3,3.18a7,7,0,0,1,1,1.24,7.18,7.18,0,0,1-1.2-1.07l-3.12-3c-2.63-2.54-6.36-6-10.48-9.77s-7.8-7.31-10.37-9.89c-1.27-1.32-2.29-2.41-3-3.17A7.69,7.69,0,0,1,336.53,44.53Z" fill="#e0e0e0"></path>
  <path d="M528.48,50.51c.19,0,.33,54.94.33,122.71s-.14,122.7-.33,122.7-.33-54.92-.33-122.7S528.35,50.51,528.48,50.51Z" fill="#e0e0e0"></path>
  <path d="M525.7,49.94c0,.18-41,.33-91.6.33s-91.62-.15-91.62-.33,41-.32,91.62-.32S525.7,49.82,525.7,49.94Z" fill="#e0e0e0"></path>
  <path d="M343.06,292c-.18,0-.33-54-.33-120.72s.15-120.73.33-120.73.31,54.05.31,120.73S343.24,292,343.06,292Z" fill="#e0e0e0"></path>
  <path d="M528.48,296.5c0,.18-40.51.33-90.47.33s-90.48-.15-90.48-.33,40.5-.33,90.48-.33S528.48,296.31,528.48,296.5Z" fill="#e0e0e0"></path>
  <path d="M513.12,279.77V264.24c0-10.11,0-24.86-.11-43.55,0-37.35-.15-90.36-.27-153.08l.3.29-153.71-.56.33-.31v.23c.23,79.68.45,153.41.63,213L360,280l111.38-.16h31l-30.84.15L360,280.41h-.26v-.27c-.22-59.55-.48-133.3-.76-213V66.6h.33L513,67.21h.3V278.78A3.63,3.63,0,0,0,513.12,279.77Z" fill="#e0e0e0"></path>
  <g opacity="0.2">
    <path d="M365.3,79.39a7.68,7.68,0,0,1-3.12.33,7.42,7.42,0,0,1-3.1-.33,7.76,7.76,0,0,1,3.1-.33A7.86,7.86,0,0,1,365.3,79.39Z" fill="#e0e0e0"></path>
  </g>
  <path d="M371.89,280.16c-.2,0-.38-1.05-.33-2.37a5.57,5.57,0,0,1,.33-2.36c.2,0,.38,1.07.33,2.37A5.42,5.42,0,0,1,371.89,280.16Z" fill="#e0e0e0"></path>
  <path d="M367,280.23c-.2,0-.38-1.07-.33-2.38a5.38,5.38,0,0,1,.33-2.35c.19,0,.38,1.07.33,2.37A5.59,5.59,0,0,1,367,280.23Z" fill="#e0e0e0"></path>
  <path d="M377.58,280c-.18,0-.36-1-.41-2.27s0-2.29.24-2.29.37,1,.42,2.26S377.76,280,377.58,280Z" fill="#e0e0e0"></path>
  <path d="M382.75,280c-.18,0-.36-1-.39-2.27s0-2.29.25-2.29.36,1,.39,2.26S382.93,280,382.75,280Z" fill="#e0e0e0"></path>
  <path d="M388,280c-.19,0-.37-1-.42-2.27s0-2.29.25-2.29.36,1,.41,2.26S388.13,280,388,280Z" fill="#e0e0e0"></path>
  <path d="M393.12,280c-.18,0-.36-1-.41-2.27s0-2.29.25-2.29.36,1,.41,2.26S393.32,280,393.12,280Z" fill="#e0e0e0"></path>
  <path d="M398.26,280c-.18,0-.36-1-.39-2.27s0-2.29.25-2.29.36,1,.39,2.26S398.48,280,398.26,280Z" fill="#e0e0e0"></path>
  <path d="M403.49,280c-.18,0-.36-1-.41-2.27s0-2.29.25-2.29.36,1,.41,2.26S403.67,280,403.49,280Z" fill="#e0e0e0"></path>
  <path d="M408.67,280c-.19,0-.37-1-.42-2.27s0-2.29.25-2.29.36,1,.41,2.26S408.85,280,408.67,280Z" fill="#e0e0e0"></path>
  <path d="M413.84,280c-.18,0-.36-1-.39-2.27s0-2.29.24-2.29.37,1,.4,2.26S414,280,413.84,280Z" fill="#e0e0e0"></path>
  <path d="M419,280c-.18,0-.36-1-.41-2.27s0-2.29.25-2.29.36,1,.41,2.26S419.22,280,419,280Z" fill="#e0e0e0"></path>
  <path d="M424.21,280c-.18,0-.36-1-.41-2.27s0-2.29.24-2.29.37,1,.42,2.26S424.39,280,424.21,280Z" fill="#e0e0e0"></path>
  <path d="M429.39,280c-.19,0-.37-1-.4-2.27s0-2.29.25-2.29.36,1,.39,2.26S429.58,280,429.39,280Z" fill="#e0e0e0"></path>
  <path d="M434.53,280c-.18,0-.36-1-.41-2.27s0-2.29.24-2.29.37,1,.42,2.26S434.76,280,434.53,280Z" fill="#e0e0e0"></path>
  <path d="M439.75,280c-.18,0-.36-1-.41-2.27s0-2.29.25-2.29.36,1,.41,2.26S439.93,280,439.75,280Z" fill="#e0e0e0"></path>
  <path d="M444.93,280c-.18,0-.36-1-.4-2.27s0-2.29.25-2.29.36,1,.4,2.26S445.11,280,444.93,280Z" fill="#e0e0e0"></path>
  <path d="M450.12,280c-.18,0-.36-1-.41-2.27s0-2.29.25-2.29.36,1,.41,2.26S450.3,280,450.12,280Z" fill="#e0e0e0"></path>
  <path d="M455.3,280c-.18,0-.37-1-.41-2.27s0-2.29.24-2.29.37,1,.41,2.26S455.48,280,455.3,280Z" fill="#e0e0e0"></path>
  <path d="M460.47,280c-.18,0-.36-1-.39-2.27s0-2.29.25-2.29.36,1,.39,2.26S460.65,280,460.47,280Z" fill="#e0e0e0"></path>
  <path d="M465.67,280c-.19,0-.37-1-.42-2.27s0-2.29.25-2.29.36,1,.41,2.26S465.85,280,465.67,280Z" fill="#e0e0e0"></path>
  <path d="M470.79,280c-.18,0-.36-1-.41-2.27s0-2.29.25-2.29.36,1,.41,2.26S471,280,470.79,280Z" fill="#e0e0e0"></path>
  <path d="M476,280c-.18,0-.37-1-.4-2.27s0-2.29.25-2.29.36,1,.39,2.26S476.2,280,476,280Z" fill="#e0e0e0"></path>
  <path d="M481.21,280c-.18,0-.36-1-.41-2.27s0-2.29.24-2.29.37,1,.42,2.26S481.39,280,481.21,280Z" fill="#e0e0e0"></path>
  <path d="M486.39,280c-.19,0-.37-1-.42-2.27s0-2.29.25-2.29.36,1,.41,2.26S486.57,280,486.39,280Z" fill="#e0e0e0"></path>
  <path d="M491.56,280c-.18,0-.36-1-.39-2.27s0-2.29.24-2.29.37,1,.4,2.26S491.74,280,491.56,280Z" fill="#e0e0e0"></path>
  <path d="M496.75,280c-.18,0-.36-1-.41-2.27s0-2.29.25-2.29.36,1,.41,2.26S496.93,280,496.75,280Z" fill="#e0e0e0"></path>
  <path d="M501.93,280c-.18,0-.36-1-.41-2.27s0-2.29.24-2.29.37,1,.42,2.26S502.11,280,501.93,280Z" fill="#e0e0e0"></path>
  <path d="M507.06,280c-.19,0-.37-1-.4-2.27s0-2.29.25-2.29.36,1,.39,2.26S507.29,280,507.06,280Z" fill="#e0e0e0"></path>
  <path d="M512.94,274a11.76,11.76,0,0,1-5.47,0A11.5,11.5,0,0,1,512.94,274Z" fill="#e0e0e0"></path>
  <path d="M512.94,268.18a11.5,11.5,0,0,1-5.47,0A11.5,11.5,0,0,1,512.94,268.18Z" fill="#e0e0e0"></path>
  <path d="M512.94,262.46a11.5,11.5,0,0,1-5.47,0A11.5,11.5,0,0,1,512.94,262.46Z" fill="#e0e0e0"></path>
  <path d="M512.94,256.64a11.5,11.5,0,0,1-5.47,0A11.5,11.5,0,0,1,512.94,256.64Z" fill="#e0e0e0"></path>
  <path d="M512.94,250.92a11.5,11.5,0,0,1-5.47,0A11.5,11.5,0,0,1,512.94,250.92Z" fill="#e0e0e0"></path>
  <path d="M512.94,245.1a11.5,11.5,0,0,1-5.47,0A12,12,0,0,1,512.94,245.1Z" fill="#e0e0e0"></path>
  <path d="M512.94,239.38a12,12,0,0,1-5.47,0A11.5,11.5,0,0,1,512.94,239.38Z" fill="#e0e0e0"></path>
  <path d="M512.94,233.58a11.5,11.5,0,0,1-5.47,0A11.5,11.5,0,0,1,512.94,233.58Z" fill="#e0e0e0"></path>
  <path d="M512.94,227.84a11.5,11.5,0,0,1-5.47,0A11.5,11.5,0,0,1,512.94,227.84Z" fill="#e0e0e0"></path>
  <path d="M512.94,222a11.5,11.5,0,0,1-5.47,0A11.5,11.5,0,0,1,512.94,222Z" fill="#e0e0e0"></path>
  <path d="M512.94,216.3a11.5,11.5,0,0,1-5.47,0A11.5,11.5,0,0,1,512.94,216.3Z" fill="#e0e0e0"></path>
  <path d="M512.94,210.5a11.5,11.5,0,0,1-5.47,0A11.5,11.5,0,0,1,512.94,210.5Z" fill="#e0e0e0"></path>
  <path d="M512.94,204.77a11.76,11.76,0,0,1-5.47,0A11.5,11.5,0,0,1,512.94,204.77Z" fill="#e0e0e0"></path>
  <path d="M512.94,199a11.5,11.5,0,0,1-5.47,0A11.5,11.5,0,0,1,512.94,199Z" fill="#e0e0e0"></path>
  <path d="M512.94,193.23a11.5,11.5,0,0,1-5.47,0A11.5,11.5,0,0,1,512.94,193.23Z" fill="#e0e0e0"></path>
  <path d="M512.94,187.44a12,12,0,0,1-5.47,0A11.5,11.5,0,0,1,512.94,187.44Z" fill="#e0e0e0"></path>
  <path d="M512.94,181.69a11.5,11.5,0,0,1-5.47,0A11.5,11.5,0,0,1,512.94,181.69Z" fill="#e0e0e0"></path>
  <path d="M512.94,175.9a11.5,11.5,0,0,1-5.47,0A11.5,11.5,0,0,1,512.94,175.9Z" fill="#e0e0e0"></path>
  <path d="M512.94,170.15a11.5,11.5,0,0,1-5.47,0A11.5,11.5,0,0,1,512.94,170.15Z" fill="#e0e0e0"></path>
  <path d="M512.94,164.36a11.5,11.5,0,0,1-5.47,0A11.76,11.76,0,0,1,512.94,164.36Z" fill="#e0e0e0"></path>
  <path d="M512.94,158.61a11.5,11.5,0,0,1-5.47,0A11.5,11.5,0,0,1,512.94,158.61Z" fill="#e0e0e0"></path>
  <path d="M512.94,152.83a11.76,11.76,0,0,1-5.47,0A11.5,11.5,0,0,1,512.94,152.83Z" fill="#e0e0e0"></path>
  <path d="M512.94,147.07a11.5,11.5,0,0,1-5.47,0A11.5,11.5,0,0,1,512.94,147.07Z" fill="#e0e0e0"></path>
  <path d="M512.94,141.29a11.5,11.5,0,0,1-5.47,0A11.5,11.5,0,0,1,512.94,141.29Z" fill="#e0e0e0"></path>
  <path d="M512.94,135.53a11.5,11.5,0,0,1-5.47,0A12.32,12.32,0,0,1,512.94,135.53Z" fill="#e0e0e0"></path>
  <path d="M512.94,129.77a12.32,12.32,0,0,1-5.47,0A11.5,11.5,0,0,1,512.94,129.77Z" fill="#e0e0e0"></path>
  <path d="M512.94,124a11.76,11.76,0,0,1-5.47,0A11.5,11.5,0,0,1,512.94,124Z" fill="#e0e0e0"></path>
  <path d="M512.94,118.23a11.5,11.5,0,0,1-5.47,0A11.5,11.5,0,0,1,512.94,118.23Z" fill="#e0e0e0"></path>
  <path d="M512.94,112.46a11.5,11.5,0,0,1-5.47,0A11.5,11.5,0,0,1,512.94,112.46Z" fill="#e0e0e0"></path>
  <path d="M512.94,106.69a11.5,11.5,0,0,1-5.47,0A11.5,11.5,0,0,1,512.94,106.69Z" fill="#e0e0e0"></path>
  <path d="M512.94,100.92a11.5,11.5,0,0,1-5.47,0A11.5,11.5,0,0,1,512.94,100.92Z" fill="#e0e0e0"></path>
  <path d="M512.94,95.15a11.5,11.5,0,0,1-5.47,0A11.5,11.5,0,0,1,512.94,95.15Z" fill="#e0e0e0"></path>
  <path d="M512.94,89.38a11.5,11.5,0,0,1-5.47,0A11.5,11.5,0,0,1,512.94,89.38Z" fill="#e0e0e0"></path>
  <path d="M512.94,83.61a11.5,11.5,0,0,1-5.47,0A12,12,0,0,1,512.94,83.61Z" fill="#e0e0e0"></path>
  <path d="M512.94,77.84a12,12,0,0,1-5.47,0A11.5,11.5,0,0,1,512.94,77.84Z" fill="#e0e0e0"></path>
  <path d="M512.94,72.09a11.5,11.5,0,0,1-5.47,0A11.5,11.5,0,0,1,512.94,72.09Z" fill="#e0e0e0"></path>
  <path d="M506.69,72.9a6,6,0,0,1-.33-2.71,5.91,5.91,0,0,1,.33-2.7,5.65,5.65,0,0,1,.33,2.7A5.69,5.69,0,0,1,506.69,72.9Z" fill="#e0e0e0"></path>
  <path d="M501.2,72.9a6,6,0,0,1-.33-2.71,5.91,5.91,0,0,1,.33-2.7,5.92,5.92,0,0,1,.32,2.7A6,6,0,0,1,501.2,72.9Z" fill="#e0e0e0"></path>
  <path d="M495.7,72.9a5.82,5.82,0,0,1-.33-2.71,5.78,5.78,0,0,1,.33-2.7,5.91,5.91,0,0,1,.33,2.7A6,6,0,0,1,495.7,72.9Z" fill="#e0e0e0"></path>
  <path d="M490.21,72.9a5.82,5.82,0,0,1-.33-2.71,5.78,5.78,0,0,1,.33-2.7,5.91,5.91,0,0,1,.33,2.7A6,6,0,0,1,490.21,72.9Z" fill="#e0e0e0"></path>
  <path d="M484.72,72.9a6,6,0,0,1-.33-2.71,5.91,5.91,0,0,1,.33-2.7,5.92,5.92,0,0,1,.31,2.7A5.94,5.94,0,0,1,484.72,72.9Z" fill="#e0e0e0"></path>
  <path d="M479.22,72.9a5.69,5.69,0,0,1-.33-2.71,5.65,5.65,0,0,1,.33-2.7,5.77,5.77,0,0,1,.32,2.7A5.82,5.82,0,0,1,479.22,72.9Z" fill="#e0e0e0"></path>
  <path d="M473.73,72.9a5.69,5.69,0,0,1-.33-2.71,5.65,5.65,0,0,1,.33-2.7,5.91,5.91,0,0,1,.33,2.7A6,6,0,0,1,473.73,72.9Z" fill="#e0e0e0"></path>
  <path d="M468.22,72.9a6.23,6.23,0,0,1-.31-2.71,6.2,6.2,0,0,1,.31-2.7,5.78,5.78,0,0,1,.33,2.7A5.82,5.82,0,0,1,468.22,72.9Z" fill="#e0e0e0"></path>
  <path d="M462.73,72.9a6,6,0,0,1-.33-2.71,5.91,5.91,0,0,1,.33-2.7,5.78,5.78,0,0,1,.33,2.7A5.82,5.82,0,0,1,462.73,72.9Z" fill="#e0e0e0"></path>
  <path d="M457.24,72.9a6,6,0,0,1-.33-2.71,5.91,5.91,0,0,1,.33-2.7,5.78,5.78,0,0,1,.33,2.7A5.82,5.82,0,0,1,457.24,72.9Z" fill="#e0e0e0"></path>
  <path d="M451.74,72.9a6.09,6.09,0,0,1-.32-2.71,6.06,6.06,0,0,1,.32-2.7,5.91,5.91,0,0,1,.33,2.7A6,6,0,0,1,451.74,72.9Z" fill="#e0e0e0"></path>
  <path d="M446.25,72.9a5.82,5.82,0,0,1-.33-2.71,5.78,5.78,0,0,1,.33-2.7,5.91,5.91,0,0,1,.33,2.7A6,6,0,0,1,446.25,72.9Z" fill="#e0e0e0"></path>
  <path d="M440.76,72.9a5.82,5.82,0,0,1-.33-2.71,5.78,5.78,0,0,1,.33-2.7,5.91,5.91,0,0,1,.33,2.7A6,6,0,0,1,440.76,72.9Z" fill="#e0e0e0"></path>
  <path d="M435.25,72.9a5.94,5.94,0,0,1-.31-2.71,5.92,5.92,0,0,1,.31-2.7,5.65,5.65,0,0,1,.33,2.7A5.69,5.69,0,0,1,435.25,72.9Z" fill="#e0e0e0"></path>
  <path d="M429.76,72.9a6,6,0,0,1-.33-2.71,5.91,5.91,0,0,1,.33-2.7,5.65,5.65,0,0,1,.33,2.7A5.69,5.69,0,0,1,429.76,72.9Z" fill="#e0e0e0"></path>
  <path d="M424.28,72.9a5.69,5.69,0,0,1-.33-2.71,5.65,5.65,0,0,1,.33-2.7,5.91,5.91,0,0,1,.33,2.7A6,6,0,0,1,424.28,72.9Z" fill="#e0e0e0"></path>
  <path d="M418.77,72.9a5.82,5.82,0,0,1-.33-2.71,5.78,5.78,0,0,1,.33-2.7,5.78,5.78,0,0,1,.33,2.7A5.82,5.82,0,0,1,418.77,72.9Z" fill="#e0e0e0"></path>
  <path d="M413.28,72.9a6,6,0,0,1-.33-2.71,5.91,5.91,0,0,1,.33-2.7,5.78,5.78,0,0,1,.33,2.7A5.82,5.82,0,0,1,413.28,72.9Z" fill="#e0e0e0"></path>
  <path d="M407.79,72.9a6,6,0,0,1-.33-2.71,5.91,5.91,0,0,1,.33-2.7,5.78,5.78,0,0,1,.33,2.7A5.82,5.82,0,0,1,407.79,72.9Z" fill="#e0e0e0"></path>
  <path d="M402.29,72.9a5.69,5.69,0,0,1-.33-2.71,5.65,5.65,0,0,1,.33-2.7,5.91,5.91,0,0,1,.33,2.7A6,6,0,0,1,402.29,72.9Z" fill="#e0e0e0"></path>
  <path d="M396.8,72.9a5.82,5.82,0,0,1-.33-2.71,5.78,5.78,0,0,1,.33-2.7,5.91,5.91,0,0,1,.33,2.7A6,6,0,0,1,396.8,72.9Z" fill="#e0e0e0"></path>
  <path d="M391.31,72.9a5.82,5.82,0,0,1-.33-2.71,5.78,5.78,0,0,1,.33-2.7,5.91,5.91,0,0,1,.33,2.7A6,6,0,0,1,391.31,72.9Z" fill="#e0e0e0"></path>
  <path d="M385.8,72.9a6,6,0,0,1-.33-2.71,5.91,5.91,0,0,1,.33-2.7,5.65,5.65,0,0,1,.33,2.7A5.69,5.69,0,0,1,385.8,72.9Z" fill="#e0e0e0"></path>
  <path d="M380.31,72.9a6,6,0,0,1-.33-2.71,5.91,5.91,0,0,1,.33-2.7,5.65,5.65,0,0,1,.33,2.7A5.69,5.69,0,0,1,380.31,72.9Z" fill="#e0e0e0"></path>
  <path d="M374.83,72.9a5.69,5.69,0,0,1-.33-2.71,5.65,5.65,0,0,1,.33-2.7,6.05,6.05,0,0,1,.31,2.7A6.08,6.08,0,0,1,374.83,72.9Z" fill="#e0e0e0"></path>
  <path d="M369.32,72.9a5.82,5.82,0,0,1-.33-2.71,5.78,5.78,0,0,1,.33-2.7,5.91,5.91,0,0,1,.33,2.7A6,6,0,0,1,369.32,72.9Z" fill="#e0e0e0"></path>
  <path d="M365.3,74.81a7.86,7.86,0,0,1-3.12.33,7.58,7.58,0,0,1-3.1-.33,7.58,7.58,0,0,1,3.1-.33A7.68,7.68,0,0,1,365.3,74.81Z" fill="#e0e0e0"></path>
  <path d="M365.3,84a7.68,7.68,0,0,1-3.12.33,7.58,7.58,0,0,1-3.1-.33,7.58,7.58,0,0,1,3.1-.33A7.86,7.86,0,0,1,365.3,84Z" fill="#e0e0e0"></path>
  <path d="M365.3,88.59a7.86,7.86,0,0,1-3.12.33,7.58,7.58,0,0,1-3.1-.33,7.58,7.58,0,0,1,3.1-.33A7.68,7.68,0,0,1,365.3,88.59Z" fill="#e0e0e0"></path>
  <path d="M365.3,93.17a7.68,7.68,0,0,1-3.12.33,7.42,7.42,0,0,1-3.1-.33,7.75,7.75,0,0,1,3.1-.31A7.85,7.85,0,0,1,365.3,93.17Z" fill="#e0e0e0"></path>
  <path d="M365.3,97.77a7.68,7.68,0,0,1-3.12.33,7.58,7.58,0,0,1-3.1-.33,7.58,7.58,0,0,1,3.1-.33A7.86,7.86,0,0,1,365.3,97.77Z" fill="#e0e0e0"></path>
  <path d="M365.3,102.37a7.86,7.86,0,0,1-3.12.33,7.58,7.58,0,0,1-3.1-.33,7.58,7.58,0,0,1,3.1-.33A7.68,7.68,0,0,1,365.3,102.37Z" fill="#e0e0e0"></path>
  <path d="M365.3,107a7.85,7.85,0,0,1-3.12.31,7.75,7.75,0,0,1-3.1-.31,7.42,7.42,0,0,1,3.1-.33A7.68,7.68,0,0,1,365.3,107Z" fill="#e0e0e0"></path>
  <path d="M365.3,111.55a7.68,7.68,0,0,1-3.12.33,7.58,7.58,0,0,1-3.1-.33,7.58,7.58,0,0,1,3.1-.33A7.86,7.86,0,0,1,365.3,111.55Z" fill="#e0e0e0"></path>
  <path d="M365.3,116.15a7.86,7.86,0,0,1-3.12.33,7.58,7.58,0,0,1-3.1-.33,7.58,7.58,0,0,1,3.1-.33A7.68,7.68,0,0,1,365.3,116.15Z" fill="#e0e0e0"></path>
  <path d="M365.3,120.7a7.86,7.86,0,0,1-3.12.33,7.58,7.58,0,0,1-3.1-.33,7.58,7.58,0,0,1,3.1-.33A7.68,7.68,0,0,1,365.3,120.7Z" fill="#e0e0e0"></path>
  <path d="M365.3,125.33a7.68,7.68,0,0,1-3.12.33,7.58,7.58,0,0,1-3.1-.33,7.76,7.76,0,0,1,3.1-.33A7.86,7.86,0,0,1,365.3,125.33Z" fill="#e0e0e0"></path>
  <path d="M365.3,129.93a7.68,7.68,0,0,1-3.12.33,7.58,7.58,0,0,1-3.1-.33,7.58,7.58,0,0,1,3.1-.33A7.86,7.86,0,0,1,365.3,129.93Z" fill="#e0e0e0"></path>
  <path d="M365.3,134.53a7.86,7.86,0,0,1-3.12.33,7.76,7.76,0,0,1-3.1-.33,7.58,7.58,0,0,1,3.1-.33A7.68,7.68,0,0,1,365.3,134.53Z" fill="#e0e0e0"></path>
  <path d="M365.3,139.11a7.68,7.68,0,0,1-3.12.33,7.42,7.42,0,0,1-3.1-.33,7.75,7.75,0,0,1,3.1-.31A7.85,7.85,0,0,1,365.3,139.11Z" fill="#e0e0e0"></path>
  <path d="M365.3,143.78a7.86,7.86,0,0,1-3.12.33,7.76,7.76,0,0,1-3.1-.33,7.42,7.42,0,0,1,3.1-.33A7.51,7.51,0,0,1,365.3,143.78Z" fill="#e0e0e0"></path>
  <path d="M365.3,148.31a7.86,7.86,0,0,1-3.12.33,7.58,7.58,0,0,1-3.1-.33,7.58,7.58,0,0,1,3.1-.33A7.68,7.68,0,0,1,365.3,148.31Z" fill="#e0e0e0"></path>
  <path d="M365.3,152.91a7.85,7.85,0,0,1-3.12.31,7.75,7.75,0,0,1-3.1-.31,7.42,7.42,0,0,1,3.1-.33A7.68,7.68,0,0,1,365.3,152.91Z" fill="#e0e0e0"></path>
  <path d="M365.3,157.49a7.68,7.68,0,0,1-3.12.33,7.58,7.58,0,0,1-3.1-.33,7.58,7.58,0,0,1,3.1-.33A7.86,7.86,0,0,1,365.3,157.49Z" fill="#e0e0e0"></path>
  <path d="M365.3,162.09a7.86,7.86,0,0,1-3.12.33,7.58,7.58,0,0,1-3.1-.33,7.58,7.58,0,0,1,3.1-.33A7.68,7.68,0,0,1,365.3,162.09Z" fill="#e0e0e0"></path>
  <path d="M365.3,166.69a7.86,7.86,0,0,1-3.12.33,7.76,7.76,0,0,1-3.1-.33,7.42,7.42,0,0,1,3.1-.33A7.68,7.68,0,0,1,365.3,166.69Z" fill="#e0e0e0"></path>
  <path d="M365.3,171.27a7.68,7.68,0,0,1-3.12.33,7.58,7.58,0,0,1-3.1-.33,7.58,7.58,0,0,1,3.1-.33A7.86,7.86,0,0,1,365.3,171.27Z" fill="#e0e0e0"></path>
  <path d="M365.3,175.87a7.86,7.86,0,0,1-3.12.33,7.58,7.58,0,0,1-3.1-.33,7.58,7.58,0,0,1,3.1-.33A7.68,7.68,0,0,1,365.3,175.87Z" fill="#e0e0e0"></path>
  <path d="M365.3,180.47a7.86,7.86,0,0,1-3.12.33,7.76,7.76,0,0,1-3.1-.33,7.42,7.42,0,0,1,3.1-.33A7.68,7.68,0,0,1,365.3,180.47Z" fill="#e0e0e0"></path>
  <path d="M365.3,185a7.67,7.67,0,0,1-3.12.32,7.58,7.58,0,0,1-3.1-.32,7.75,7.75,0,0,1,3.1-.32A7.85,7.85,0,0,1,365.3,185Z" fill="#e0e0e0"></path>
  <path d="M365.3,189.65a7.86,7.86,0,0,1-3.12.33,7.58,7.58,0,0,1-3.1-.33,7.58,7.58,0,0,1,3.1-.33A7.68,7.68,0,0,1,365.3,189.65Z" fill="#e0e0e0"></path>
  <path d="M365.3,194.25a7.86,7.86,0,0,1-3.12.33,7.76,7.76,0,0,1-3.1-.33,7.58,7.58,0,0,1,3.1-.33A7.68,7.68,0,0,1,365.3,194.25Z" fill="#e0e0e0"></path>
  <path d="M365.3,198.85a7.85,7.85,0,0,1-3.12.31,7.75,7.75,0,0,1-3.1-.31,7.42,7.42,0,0,1,3.1-.33A7.51,7.51,0,0,1,365.3,198.85Z" fill="#e0e0e0"></path>
  <path d="M365.3,203.43a7.68,7.68,0,0,1-3.12.33,7.58,7.58,0,0,1-3.1-.33,7.58,7.58,0,0,1,3.1-.33A7.86,7.86,0,0,1,365.3,203.43Z" fill="#e0e0e0"></path>
  <path d="M365.3,208.06a7.68,7.68,0,0,1-3.12.33,7.42,7.42,0,0,1-3.1-.33,7.76,7.76,0,0,1,3.1-.33A7.86,7.86,0,0,1,365.3,208.06Z" fill="#e0e0e0"></path>
  <path d="M365.3,212.63a7.86,7.86,0,0,1-3.12.33,7.76,7.76,0,0,1-3.1-.33,7.42,7.42,0,0,1,3.1-.33A7.68,7.68,0,0,1,365.3,212.63Z" fill="#e0e0e0"></path>
  <path d="M365.3,217.21a7.68,7.68,0,0,1-3.12.33,7.58,7.58,0,0,1-3.1-.33,7.58,7.58,0,0,1,3.1-.33A7.86,7.86,0,0,1,365.3,217.21Z" fill="#e0e0e0"></path>
  <path d="M365.3,221.81a7.86,7.86,0,0,1-3.12.33,7.58,7.58,0,0,1-3.1-.33,7.58,7.58,0,0,1,3.1-.33A7.68,7.68,0,0,1,365.3,221.81Z" fill="#e0e0e0"></path>
  <path d="M365.3,226.41a7.86,7.86,0,0,1-3.12.33,7.76,7.76,0,0,1-3.1-.33,7.42,7.42,0,0,1,3.1-.33A7.68,7.68,0,0,1,365.3,226.41Z" fill="#e0e0e0"></path>
  <path d="M365.3,231a7.68,7.68,0,0,1-3.12.33,7.58,7.58,0,0,1-3.1-.33,7.75,7.75,0,0,1,3.1-.31A7.85,7.85,0,0,1,365.3,231Z" fill="#e0e0e0"></path>
  <path d="M365.3,235.59a7.86,7.86,0,0,1-3.12.33,7.58,7.58,0,0,1-3.1-.33,7.58,7.58,0,0,1,3.1-.33A7.68,7.68,0,0,1,365.3,235.59Z" fill="#e0e0e0"></path>
  <path d="M365.3,240.19a7.86,7.86,0,0,1-3.12.33,7.76,7.76,0,0,1-3.1-.33,7.42,7.42,0,0,1,3.1-.33A7.68,7.68,0,0,1,365.3,240.19Z" fill="#e0e0e0"></path>
  <path d="M365.3,244.79a7.85,7.85,0,0,1-3.12.31,7.75,7.75,0,0,1-3.1-.31,7.42,7.42,0,0,1,3.1-.33A7.51,7.51,0,0,1,365.3,244.79Z" fill="#e0e0e0"></path>
  <path d="M365.3,249.37a7.86,7.86,0,0,1-3.12.33,7.58,7.58,0,0,1-3.1-.33,7.58,7.58,0,0,1,3.1-.33A7.68,7.68,0,0,1,365.3,249.37Z" fill="#e0e0e0"></path>
  <path d="M365.3,254a7.86,7.86,0,0,1-3.12.33,7.76,7.76,0,0,1-3.1-.33,7.42,7.42,0,0,1,3.1-.33A7.68,7.68,0,0,1,365.3,254Z" fill="#e0e0e0"></path>
  <path d="M365.3,258.57a7.86,7.86,0,0,1-3.12.33,7.76,7.76,0,0,1-3.1-.33,7.42,7.42,0,0,1,3.1-.33A7.51,7.51,0,0,1,365.3,258.57Z" fill="#e0e0e0"></path>
  <path d="M365.3,263.15a7.86,7.86,0,0,1-3.12.33,7.58,7.58,0,0,1-3.1-.33,7.58,7.58,0,0,1,3.1-.33A7.68,7.68,0,0,1,365.3,263.15Z" fill="#e0e0e0"></path>
  <path d="M365.3,267.75a7.86,7.86,0,0,1-3.12.33,7.76,7.76,0,0,1-3.1-.33,7.58,7.58,0,0,1,3.1-.33A7.68,7.68,0,0,1,365.3,267.75Z" fill="#e0e0e0"></path>
  <path d="M365.3,272.35a7.86,7.86,0,0,1-3.12.33,7.76,7.76,0,0,1-3.1-.33,7.42,7.42,0,0,1,3.1-.33A7.51,7.51,0,0,1,365.3,272.35Z" fill="#e0e0e0"></path>
  <rect x="365.56" y="72.91" width="141.13" height="202.52" fill="#fff"></rect>
  <path d="M365.3,95.64c23.9,28.5,52.13,58.44,75.1,87.7l-75.1,20.09Z" fill="#f5f5f5"></path>
  <path d="M365.48,200.05v75.38l141.94-1.09-.55-104.88Q436,183.85,365.4,200.05" fill="#fafafa"></path>
  <polygon points="763.19 106.56 763.19 222.27 597.02 222.27 591.02 107.38 763.19 106.56" fill="#e0e0e0"></polygon>
  <rect x="591.04" y="107.36" width="166.19" height="114.66" fill="#fff"></rect>
  <path d="M758,222.9H590.25V106.59H758Zm-166.19-1.65H756.43V108.16H591.81Z" fill="#e0e0e0"></path>
  <rect x="609.02" y="121.62" width="130.19" height="86.16" fill="#fff"></rect>
  <path d="M739.21,121.62h-9.64l-26.82.1-93.73.2.38-.38v86.14h0l-.41-.41H739.21l-.31.33c0-26.22.11-47.72.16-62.64,0-7.48,0-13.33.08-17.34v-.2c0,4,0,9.89.09,17.26,0,15,.1,36.6.16,62.9v.33h-131v-.41h0V121h.38l94,.18,26.74.1h8.89Z" fill="#e0e0e0"></path>
  <path d="M591,107.05a14.21,14.21,0,0,1,2.87,1.85c1.65,1.23,4,3,6.51,4.94s4.7,3.89,6.25,5.31a12.46,12.46,0,0,1,2.37,2.44c-.15.16-4.13-3.13-9.13-7.1A96.75,96.75,0,0,1,591,107.05Z" fill="#e0e0e0"></path>
  <path d="M757.21,107.38a79.4,79.4,0,0,1-8.74,7.43,79,79,0,0,1-9.26,6.81,81.18,81.18,0,0,1,8.75-7.51A80.27,80.27,0,0,1,757.21,107.38Z" fill="#e0e0e0"></path>
  <path d="M757.08,222l-18.53-15" fill="#fff"></path>
  <path d="M738.55,207a88.73,88.73,0,0,1,9.53,7.19,89.35,89.35,0,0,1,9,7.83,84.11,84.11,0,0,1-9.51-7.19A83.94,83.94,0,0,1,738.55,207Z" fill="#e0e0e0"></path>
  <path d="M591,222a80,80,0,0,1,8.66-7.36,77.94,77.94,0,0,1,9.16-6.71,79.77,79.77,0,0,1-8.65,7.35A77.31,77.31,0,0,1,591,222Z" fill="#e0e0e0"></path>
  <rect x="635.46" y="148.46" width="81.92" height="28.85" fill="#e0e0e0"></rect>
  <path d="M316.1,266h5.7a11.87,11.87,0,0,1,11.87,11.87v0a0,0,0,0,1,0,0H304.23a0,0,0,0,1,0,0v0A11.87,11.87,0,0,1,316.1,266Z" fill="#f2b600"></path>
  <path d="M334.18,278.33H303.73v-.5a12.39,12.39,0,0,1,12.37-12.37h5.71a12.39,12.39,0,0,1,12.37,12.37Zm-29.44-1h28.43a11.39,11.39,0,0,0-11.36-10.87H316.1A11.38,11.38,0,0,0,304.74,277.33Z" fill="#2f2e41"></path>
  <polygon points="305.06 280.55 333.68 280.55 329.4 334.31 311.71 334.31 305.06 280.55" fill="#fff"></polygon>
  <path d="M329.87,334.81H311.26l-.05-.44-6.72-54.32h29.73Zm-17.72-1h16.79l4.2-52.76H305.62Z" fill="#2f2e41"></path>
  <polygon points="307.45 299.94 332.14 299.94 331.02 314.04 309.31 314.04 307.45 299.94" fill="#f2b600"></polygon>
  <path d="M331.48,314.54H308.87l-2-15.1h25.8Zm-21.73-1h20.8l1.05-13.1H308Z" fill="#2f2e41"></path>
  <rect x="300.8" y="275.11" width="36.99" height="5.44" fill="#2f2e41"></rect>
  <path d="M234,558.76s-5.84,2.1-7.94,6.54l3,36.46s3.28,24.61,12.32,33a7,7,0,0,0,10.72-1.53l.09-.16,1.91-8.06-2.57-26.87Z" fill="#fff"></path>
  <path d="M246.17,637.1a7.4,7.4,0,0,1-5-2c-9.07-8.42-12.34-32.29-12.48-33.3l-3-36.62.06-.12c2.16-4.57,8-6.71,8.23-6.8l.43-.16,17.8,40L254.69,625l0,.08-2,8.2-.09.17a7.46,7.46,0,0,1-5.35,3.54A8,8,0,0,1,246.17,637.1Zm-19.56-71.7,3,36.32c0,.22,3.36,24.51,12.16,32.68a6.5,6.5,0,0,0,9.95-1.42l.05-.1,1.88-7.91-2.56-26.7L233.78,559.4C232.44,560,228.31,562,226.61,565.4Z" fill="#2f2e41"></path>
  <polygon points="110.11 503.01 81.87 634.84 88.25 634.84 131.74 503.01 110.11 503.01" fill="#d1d3d4"></polygon>
  <path d="M88.61,635.34H81.25l.13-.6,28.33-132.23h22.72l-.22.66Zm-6.13-1h5.41l43.16-130.83H110.51Z" fill="#2f2e41"></path>
  <polygon points="171.4 503.01 143.16 634.84 149.54 634.84 193.03 503.01 171.4 503.01" fill="#d1d3d4"></polygon>
  <path d="M149.91,635.34h-7.37l.13-.6L171,502.51h22.72l-.22.66Zm-6.13-1h5.4l43.16-130.83H171.81Z" fill="#2f2e41"></path>
  <polygon points="239.41 503.01 267.65 634.84 261.27 634.84 217.78 503.01 239.41 503.01" fill="#d1d3d4"></polygon>
  <path d="M268.27,635.34h-7.36L217.09,502.51h22.72l.09.39Zm-6.64-1H267L239,503.51H218.47Z" fill="#2f2e41"></path>
  <path d="M245.82,551.75s-2.66,2.8-11.78,7v24.07s.38,1-.56,5.64a26.11,26.11,0,0,0-.58,6A39.76,39.76,0,0,0,235,605.72s4.91,15.59,6.78,17.62c0,0,1.16,2.26,6.54,3.66,0,0,4.44,1.63,4,6.07,0,0,4.44-4.2,3.27-17.29,0,0,.13-15.89,5.61-26.64l4.36-7.92-4.36-8.44Z" fill="#f2b600"></path>
  <path d="M251.63,634.37l.14-1.35c.42-4-3.48-5.49-3.64-5.55-5-1.32-6.54-3.43-6.78-3.84-1.95-2.25-6.65-17.12-6.85-17.76a40.93,40.93,0,0,1-2.1-11.35,25.83,25.83,0,0,1,.59-6.15c.87-4.26.59-5.34.58-5.39l0-.15V558.44l.29-.13c8.88-4.1,11.61-6.88,11.63-6.91l.42-.43.35.49,15.33,21,4.52,8.74-4.49,8.15c-5.36,10.51-5.55,26.25-5.55,26.4,1.18,13.13-3.24,17.48-3.42,17.66Zm-17.09-51.61c.1.4.25,1.8-.58,5.81a26,26,0,0,0-.56,5.92,39.52,39.52,0,0,0,2,11.08c1.36,4.31,5.2,15.83,6.67,17.43l.08.11s1.19,2.09,6.23,3.4c.08,0,3.8,1.45,4.32,5.07,1.17-2,3.1-6.7,2.3-15.75,0-.21.18-16.18,5.66-26.92l4.24-7.7-4.24-8.2-15-20.51c-1.06.92-4.19,3.32-11.21,6.58Z" fill="#2f2e41"></path>
  <path d="M300.22,628s-3.83,8.15,5.18,9.51l61.38,1s20.24,0,19-6.92c0,0-1.18-4.43-4.81-5.31l-25.44-3-31.62,4.94-17.17-3Z" fill="#fff"></path>
  <path d="M366.78,639l-61.38-1c-2.91-.44-4.84-1.57-5.81-3.37-1.6-3,.1-6.7.17-6.85l.09-.18,6.85-2.85,17.23,3,31.61-4.94,25.51,3c3.93,1,5.19,5.49,5.24,5.68a3.62,3.62,0,0,1-.84,3.09C381.76,639,367.39,639,366.78,639ZM300.6,628.41c-.3.72-1.32,3.57-.12,5.79.8,1.51,2.49,2.47,5,2.84l61.31,1c.14,0,14.5,0,17.9-4.11a2.58,2.58,0,0,0,.62-2.22h0s-1.15-4.11-4.44-4.92l-25.31-2.94-31.63,4.94h-.09l-17-2.94Z" fill="#2f2e41"></path>
  <polygon points="426.73 412.5 448.88 632.82 437.8 632.82 416.88 412.5 426.73 412.5" fill="#e6e7e8"></polygon>
  <path d="M449.43,633.32H437.35L416.33,412h10.85l0,.45Zm-11.17-1h10.07L426.27,413h-8.84Z" fill="#2f2e41"></path>
  <polygon points="473.36 412.5 451.21 632.82 462.28 632.82 483.21 412.5 473.36 412.5" fill="#e6e7e8"></polygon>
  <path d="M462.74,633.32H450.65l.06-.55L472.91,412h10.85l-.06.54Zm-11-1h10.07L482.66,413h-8.85Z" fill="#2f2e41"></path>
  <polygon points="570.16 496.34 526.11 627.88 519.73 627.88 548.5 496.34 570.16 496.34" fill="#d1d3d4"></polygon>
  <path d="M526.47,628.38H519.1l29-132.54h22.77l-.22.66Zm-6.12-1h5.4l43.72-130.54H548.9Z" fill="#2f2e41"></path>
  <polygon points="632.95 500.68 588.9 632.21 582.52 632.21 611.28 500.68 632.95 500.68" fill="#d1d3d4"></polygon>
  <path d="M589.26,632.71h-7.37l29-132.53h22.77l-.22.66Zm-6.12-1h5.4l43.72-130.53H611.69Z" fill="#2f2e41"></path>
  <path d="M588.85,562.11h0c3.33,7-.05,16.71-.05,16.71-9.51,18.1-14.16,8-14.16,8-6.09-7-7.71,2.83-7.71,2.83-1.44-11.7-8.63-25.8-8.63-25.8l10-11.23,3.71,3.65A24.78,24.78,0,0,0,588.85,562.11Z" fill="#fff"></path>
  <path d="M566.87,593.11l-.42-3.44c-1.42-11.47-8.52-25.49-8.59-25.63l-.15-.31,10.62-11.88,4.08,4a24.18,24.18,0,0,0,16.34,5.75l.37-.13.2.4c3.37,7.16.1,16.69,0,17.1-3.88,7.4-7.47,11.12-10.7,11.12h-.12c-2.63-.07-4-2.59-4.23-3.06-1.09-1.24-2.65-2.62-4-2.25-1.73.49-2.62,3.7-2.81,4.89Zm3.85-9.37c1.31,0,2.75.91,4.31,2.71l.07.12s1.18,2.48,3.4,2.54h.07c2,0,5.24-1.85,9.8-10.52,0,0,3.15-9.21.18-16a25.36,25.36,0,0,1-16.82-6l-3.36-3.31-9.46,10.59c1,2,6.35,13.18,8.17,23.34.53-1.39,1.44-3,2.9-3.39A2.64,2.64,0,0,1,570.72,583.74Z" fill="#2f2e41"></path>
  <path d="M600.24,565.46c-8.3,29.72-30.08,64.75-30.08,64.75-4.55-3.22-3-14.32-3-14.32a139.4,139.4,0,0,0-.24-26.28s1.62-9.88,7.71-2.83c0,0,4.65,10.14,14.16-8,0,0,3.38-9.66.05-16.71C596.87,563.18,600.24,565.46,600.24,565.46Z" fill="#f2b600"></path>
  <path d="M570.31,630.92l-.43-.3c-4.76-3.36-3.26-14.34-3.2-14.8a140.85,140.85,0,0,0-.23-26.15v-.14c0-.2.84-4.93,3.53-5.69,1.49-.42,3.19.46,5,2.61l.07.12s1.18,2.48,3.4,2.54h.07c2,0,5.24-1.85,9.8-10.52,0,0,3.24-9.49,0-16.27l-.39-.83.91.12c8,1.08,11.45,3.34,11.59,3.44l.3.2-.1.35c-8.23,29.44-29.91,64.52-30.13,64.87Zm-2.86-41.3a141.53,141.53,0,0,1,.23,26.32c0,.12-1.38,10.13,2.35,13.52,2.62-4.29,21.89-36.41,29.62-63.76-.94-.53-4.09-2.08-10-3,2.77,7-.26,15.87-.4,16.26-3.88,7.4-7.47,11.12-10.7,11.12h-.12c-2.63-.07-4-2.59-4.23-3.06-1.09-1.24-2.65-2.62-4-2.25C568.55,585.28,567.67,588.38,567.45,589.62Z" fill="#2f2e41"></path>
  <path d="M607.65,570.83l-3.48,7.49a5.71,5.71,0,0,1-2.78,2.81,3.52,3.52,0,0,0-2.19,4.56,5.73,5.73,0,0,1-.33,4l-18.14,39.07c-4.35,8.16-10.57,1.42-10.57,1.42s21.78-35,30.08-64.75C609.1,566.55,607.65,570.83,607.65,570.83Z" fill="#fff"></path>
  <path d="M575.44,633.32c-3.05,0-5.53-2.65-5.64-2.77l-.26-.28.2-.32c.22-.35,21.83-35.31,30-64.62l.11-.42.43.06c3.81.46,6.29,1.57,7.37,3.29a3.38,3.38,0,0,1,.45,2.73l0,0-3.48,7.49a6.22,6.22,0,0,1-3,3.06,3,3,0,0,0-1.91,4,6.28,6.28,0,0,1-.35,4.38L581.18,629c-1.38,2.59-3.09,4-5.08,4.28A4.87,4.87,0,0,1,575.44,633.32Zm-4.64-3.19c.73.69,2.87,2.45,5.17,2.16,1.66-.22,3.11-1.47,4.31-3.74l18.14-39a5.22,5.22,0,0,0,.3-3.68,4,4,0,0,1,2.46-5.15,5.25,5.25,0,0,0,2.54-2.57l3.46-7.45a2.43,2.43,0,0,0-.37-1.89c-.62-1-2.19-2.2-6.21-2.76C592.73,593.82,573.05,626.45,570.8,630.13Z" fill="#2f2e41"></path>
  <polygon points="710.95 500.68 755 632.21 761.39 632.21 732.62 500.68 710.95 500.68" fill="#d1d3d4"></polygon>
  <path d="M762,632.71h-7.37L710.26,500.18H733Zm-6.65-1h5.41L732.22,501.18H711.65Z" fill="#2f2e41"></path>
  <polygon points="651.17 500.68 695.22 632.21 701.61 632.21 672.84 500.68 651.17 500.68" fill="#d1d3d4"></polygon>
  <path d="M702.23,632.71h-7.37L650.47,500.18h22.77Zm-6.65-1H701L672.43,501.18H651.86Z" fill="#2f2e41"></path>
  <polygon points="604.01 500.68 585.1 500.68 577.11 485.32 585.1 458.48 600.07 475.43 604.01 500.68" fill="#d1d3d4"></polygon>
  <path d="M604.6,501.18H584.8l-8.23-15.81,8.31-27.9,15.66,17.74Zm-19.19-1h18l-3.83-24.53-14.27-16.17-7.68,25.79Z" fill="#2f2e41"></path>
  <path d="M636.77,387.7l-8.67,16.91s-19,1-31.11,15.7l29.33,5.85,24.35-7.51L647.43,389Z" fill="#e6e7e8"></path>
  <path d="M626.35,426.67l-.12,0-30.15-6,.53-.64c11.26-13.74,28.71-15.66,31.18-15.87l8.7-17,11.39,1.37L651.22,419ZM597.92,420l28.38,5.66,23.83-7.36L647,389.43l-9.91-1.19-8.64,16.86h-.29C627.94,405.12,609.73,406.22,597.92,420Z" fill="#2f2e41"></path>
  <path d="M466.91,391.92c-.4,0-.81,0-1.23-.05a.5.5,0,0,1-.45-.55.5.5,0,0,1,.54-.45,9.87,9.87,0,0,0,7.81-2.49,11.6,11.6,0,0,0,2.49-13.52,23.53,23.53,0,0,0-6.92-8.18.5.5,0,0,1-.13-.7.51.51,0,0,1,.7-.12,24,24,0,0,1,7.25,8.58,12.57,12.57,0,0,1-2.73,14.68A10.65,10.65,0,0,1,466.91,391.92Z" fill="#2f2e41"></path>
  <path d="M443.22,354.49h27.3s1.21,28.69-5.88,41.18h-16S442.05,382.5,443.22,354.49Z" fill="#f2b600"></path>
  <path d="M464.93,396.17h-16.6l-.14-.27c-.07-.14-6.63-13.62-5.47-41.43l0-.48H471l0,.48c.05,1.18,1.13,29-5.95,41.45Zm-16-1h15.39c6.29-11.46,5.81-36.41,5.69-40.18H443.7C442.72,380,448.05,393.15,449,395.17Z" fill="#2f2e41"></path>
  <path d="M549.21,369.54l-55.81,9.22a5.17,5.17,0,0,1-4.45-1.38c-2.72-2.64-7.94-7.27-11.59-7.82a1.21,1.21,0,0,0-1.39,1.17,7.89,7.89,0,0,0,2.08,5.08,1.45,1.45,0,0,1-.83,2.37,5.29,5.29,0,0,1-1.78,0,2.55,2.55,0,0,1-2.1-2.52v-.06a1,1,0,0,0-1.32-1c-2.14.61-5.75,2.47-1.74,7.88,0,0-1.41,4,1.41,6.48,0,0-.94,5.52,3.3,6.69h82.14l5.39-12Z" fill="#fff"></path>
  <path d="M557.45,396.17l-82.6,0c-3.53-1-4-4.85-3.69-7-2.41-2.31-1.7-5.63-1.43-6.58-1.55-2.16-2.08-4-1.56-5.52.58-1.72,2.34-2.54,3.72-2.93a1.55,1.55,0,0,1,1.35.25,1.53,1.53,0,0,1,.6,1.22,2.09,2.09,0,0,0,1.68,2.09,5.18,5.18,0,0,0,1.62,0,.91.91,0,0,0,.69-.58,1,1,0,0,0-.16-1,8.35,8.35,0,0,1-2.2-5.41,1.73,1.73,0,0,1,.6-1.27,1.69,1.69,0,0,1,1.36-.38c3.78.57,9.06,5.22,11.87,7.95a4.69,4.69,0,0,0,4,1.25L549.39,369l13.72,14.56Zm-82.39-1h81.75l5.12-11.4L549,370.08l-55.55,9.18a5.72,5.72,0,0,1-4.88-1.53c-2.72-2.64-7.81-7.15-11.32-7.67a.71.71,0,0,0-.81.68,7.35,7.35,0,0,0,2,4.75,2,2,0,0,1,.32,2,1.89,1.89,0,0,1-1.45,1.21,5.61,5.61,0,0,1-2,0,3,3,0,0,1-2.51-3,.53.53,0,0,0-.68-.57c-1.15.33-2.6,1-3.05,2.29s.11,2.84,1.57,4.81l.16.21-.09.25s-1.26,3.74,1.27,5.94l.21.19,0,.27C472.15,389.27,471.39,394.09,475.06,395.17Z" fill="#2f2e41"></path>
  <path d="M473.93,383.69a10.09,10.09,0,0,1-3.86-.74.49.49,0,0,1-.24-.66.5.5,0,0,1,.66-.25,9.45,9.45,0,0,0,8.65-1,.5.5,0,0,1,.69.14.49.49,0,0,1-.13.69A10.15,10.15,0,0,1,473.93,383.69Z" fill="#2f2e41"></path>
  <path d="M474.5,389.69a17.69,17.69,0,0,1-2.89-.22.5.5,0,1,1,.17-1c.05,0,5.38.89,8.85-1.22a.5.5,0,1,1,.52.86A13.19,13.19,0,0,1,474.5,389.69Z" fill="#2f2e41"></path>
  <path d="M170.33,281s-36.13-6.83-43.61,31.4c0,0-3.42,17.94-3.84,49.75v38.44s40.57,2.56,56.59,17.09c0,0,22.85-5.56,39.5-6.62,0,0,8.54-1.93,1.5-7.05,0,0-4.7-3.85-2.14-8.76l42.92.43s6.57-9.83,3.86-28.55c0,0,8.86-6.28,14,.29,0,0,4.43,2.14,11.86,1.28l8.93-11.82A10.76,10.76,0,0,0,302,352h0a10.77,10.77,0,0,1,2.31-5.19l4.42-5.4s-12.43-4.86-18.43-22.86c0,0-3.28-1.71-8.85,4.71l-10.95,12.34a14.3,14.3,0,0,1-2.85,2.47,29.21,29.21,0,0,0-10.92,13.48,2.37,2.37,0,0,1-1.68,1.19,13.68,13.68,0,0,0-8.41,5.42c-.68,1-1.42,2.16-2.19,3.53,0,0-3,.86-6.15-7.43l-11.61-29.72c-.76-1.95-1.49-3.92-2.12-5.91-1.54-4.9-7.74-19.52-28.22-26.81Z" fill="#f2b600"></path>
  <path d="M179.33,418.24l-.2-.17c-15.7-14.24-55.88-16.93-56.28-17l-.47,0V362.17c.42-31.5,3.82-49.67,3.85-49.85,7.48-38.27,43.83-31.86,44.19-31.79l.1,0,26,10.82c20.86,7.43,27.1,22.64,28.51,27.13.55,1.74,1.22,3.61,2.1,5.88l11.62,29.72c2.46,6.48,4.73,7.1,5.37,7.14.7-1.22,1.4-2.34,2.09-3.34a14.17,14.17,0,0,1,8.71-5.63,1.87,1.87,0,0,0,1.33-.9,29.45,29.45,0,0,1,11.11-13.7,13.59,13.59,0,0,0,2.74-2.39L281,323c5.76-6.64,9.32-4.9,9.46-4.82l.18.09.07.19c5.85,17.55,18,22.5,18.13,22.55l.64.25-4.85,5.94a10.22,10.22,0,0,0-2.21,4.95,11.34,11.34,0,0,1-2.14,5.09l-9.06,12-.22,0c-7.49.86-11.94-1.24-12.13-1.33l-.1-.05-.07-.09c-4.38-5.6-11.61-1.31-13.07-.36,2.6,18.49-3.71,28.18-4,28.59l-.15.22-42.88-.42c-2,4.35,2,7.72,2.14,7.86,2.23,1.62,3.22,3.16,2.92,4.58-.49,2.39-4.45,3.31-4.62,3.34-16.5,1.07-39.27,6.57-39.49,6.62Zm-56-18.09c4.56.34,41.07,3.52,56.23,17,2.57-.61,23.77-5.58,39.33-6.57.9-.21,3.48-1.1,3.78-2.56.21-1-.67-2.23-2.55-3.59-.07-.06-5-4.18-2.28-9.39l.14-.27,43,.43c.92-1.57,6.07-11.22,3.64-28l-.05-.3.25-.18c.09-.06,9.22-6.42,14.61.29a23.35,23.35,0,0,0,11.27,1.22l8.8-11.66a10.33,10.33,0,0,0,2-4.63,11.32,11.32,0,0,1,2.41-5.44l4-4.9c-2.6-1.27-12.77-7.1-18-22.65-.71-.19-3.59-.54-8.09,4.65L270.82,336a15,15,0,0,1-2.94,2.56,28.82,28.82,0,0,0-10.73,13.25,2.89,2.89,0,0,1-2,1.49,13.2,13.2,0,0,0-8.11,5.22c-.71,1-1.44,2.21-2.17,3.49l-.1.18-.2.05c-.35.11-3.53.74-6.74-7.73l-11.62-29.72c-.89-2.29-1.57-4.18-2.12-5.94-1.38-4.38-7.47-19.21-27.92-26.49L170.19,281.5a44.06,44.06,0,0,0-18.75,1.37c-13,4-21.17,14-24.23,29.64,0,.18-3.41,18.27-3.83,49.67Z" fill="#2f2e41"></path>
  <path d="M294,352.08a.52.52,0,0,1-.29-.09c-14.12-9.84-17.21-19.78-17.33-20.2a.5.5,0,0,1,.33-.62.51.51,0,0,1,.63.34c0,.1,3.13,10,16.95,19.66a.51.51,0,0,1,.12.7A.49.49,0,0,1,294,352.08Z" fill="#2f2e41"></path>
  <path d="M181.77,395.93c-3.65,0-9.8-.6-14.46-4.09h0A85,85,0,0,0,155.6,387a8.41,8.41,0,0,0-1.82-.38c-1.34-.14-4.71-1-7.27-6a8.45,8.45,0,0,0-2.41-2.85c-4.66-3.58-15.44-13.3-14.92-26.13a.53.53,0,0,1,.52-.48.5.5,0,0,1,.48.52c-.5,12.36,10,21.81,14.53,25.3a9.58,9.58,0,0,1,2.69,3.19c2.34,4.6,5.31,5.37,6.47,5.48a9.59,9.59,0,0,1,2,.43,83.39,83.39,0,0,1,11.94,5c6.67,5,16.83,3.79,16.93,3.78a301.39,301.39,0,0,1,33.58,0,.5.5,0,0,1,.47.53.48.48,0,0,1-.53.47,300.12,300.12,0,0,0-33.42,0A25.85,25.85,0,0,1,181.77,395.93Z" fill="#2f2e41"></path>
  <path d="M277.71,366a12.68,12.68,0,0,0,5.71,2.67,27.68,27.68,0,0,0,7.55.07s15.67-2.42,17.71,1c0,0,2.05,4-8.81,5.72,0,0,17.72-1.15,17.14,4.95,0,0-.38,1.33-5.14,3.81,0,0,1.84,4.76-9.08,6.28,0,0-.25,6.1-7.11,5.72l-34.43-.5s6.43-9.41,3.86-28.55C265.11,367.15,272.85,362.22,277.71,366Z" fill="#fff"></path>
  <path d="M296.29,396.72l-.64,0-35.33-.51.52-.77c.06-.09,6.28-9.51,3.78-28.2l-.05-.32.27-.17c.33-.21,8.1-5.07,13.17-1.15a11.89,11.89,0,0,0,5.49,2.57,27.29,27.29,0,0,0,7.41.08c1.62-.25,16-2.38,18.2,1.24a2.62,2.62,0,0,1-.1,2.34q-1,1.88-4.46,3.05c4.13.1,9.8.67,12,2.94a3.2,3.2,0,0,1,1,2.64c-.09.34-.66,1.68-5.06,4a3.61,3.61,0,0,1-.5,2.41c-1.17,2-4.1,3.36-8.7,4.05a6.51,6.51,0,0,1-7,5.8Zm-34.16-1.51,33.56.49a6.36,6.36,0,0,0,4.79-1.39,6,6,0,0,0,1.81-3.85l0-.41.41-.06c5.61-.78,7.65-2.41,8.37-3.63a2.46,2.46,0,0,0,.31-2l-.16-.42.4-.2c3.93-2.05,4.76-3.27,4.88-3.5a2.25,2.25,0,0,0-.68-1.77c-3.24-3.33-15.81-2.56-15.94-2.55l-.11-1c5.8-.91,7.72-2.44,8.31-3.56a1.59,1.59,0,0,0,.13-1.43c-1.34-2.25-11.26-1.65-17.19-.73a28.22,28.22,0,0,1-7.7-.08,13,13,0,0,1-5.94-2.77h0c-4-3.12-10.37.24-11.75,1C267.73,383.49,263.58,392.61,262.13,395.21Z" fill="#2f2e41"></path>
  <path d="M259.05,368a71.14,71.14,0,0,1-29.51-6.27,130,130,0,0,0-32.36-3.81c-.13,0-16.31.5-23.62-12.47L164,328.08c-.76-1.37-1.45-2.75-2.06-4.09-1.53-3.38-5.76-11.86-12-17.47a.49.49,0,0,1,0-.7.5.5,0,0,1,.71,0c6.4,5.73,10.71,14.36,12.27,17.8.59,1.32,1.27,2.67,2,4l9.57,17.31c7,12.43,22.57,12,22.72,12a131,131,0,0,1,32.73,3.87A70.41,70.41,0,0,0,265,366.66a.49.49,0,0,1,.57.42.51.51,0,0,1-.43.57A52.84,52.84,0,0,1,259.05,368Z" fill="#2f2e41"></path>
  <path d="M246.8,391.94h-.1a.5.5,0,0,1-.39-.59c3.26-17,.78-24.54.76-24.61a.5.5,0,0,1,.31-.63.49.49,0,0,1,.63.31c.11.31,2.6,7.83-.72,25.12A.51.51,0,0,1,246.8,391.94Z" fill="#2f2e41"></path>
  <path d="M168.07,334.92a.51.51,0,0,1-.5-.49,46.32,46.32,0,0,0-3.41-16.92.5.5,0,0,1,.24-.67.49.49,0,0,1,.66.24,47.09,47.09,0,0,1,3.51,17.33.49.49,0,0,1-.49.51Z" fill="#2f2e41"></path>
  <path d="M223.23,360.25h-.07a.5.5,0,0,1-.43-.56c2.44-17.46-2.28-38-2.33-38.2a.5.5,0,0,1,1-.23c0,.21,4.8,20.92,2.34,38.57A.5.5,0,0,1,223.23,360.25Z" fill="#2f2e41"></path>
  <path d="M176.55,300.87a.54.54,0,0,1-.3-.1C162,290,161.55,281,161.54,280.61a.5.5,0,0,1,.48-.52.51.51,0,0,1,.52.48c0,.09.5,9,14.31,19.4a.5.5,0,0,1-.3.9Z" fill="#2f2e41"></path>
  <path d="M195.71,311.18c-6,0-12.72-2.68-13.13-2.85a.49.49,0,0,1-.27-.65.5.5,0,0,1,.65-.28c.14.06,14.14,5.69,19.45.74,2.49-2.32,2.7-6.69.64-13a.5.5,0,0,1,.95-.31c2.2,6.7,1.89,11.42-.91,14C201.24,310.59,198.55,311.18,195.71,311.18Z" fill="#2f2e41"></path>
  <path d="M290.25,318.58s.94.3,2.38-3c0,0,.82-5.12,7.78-5.94,0,0,4.62-3.93,13.16-3.6a1.78,1.78,0,0,1,1.75,1.79c-.06,1.66.19,3.92-6.21,5.46l2.38,19.29s-1.69,5-10.69,3.3C300.8,335.9,295.05,331.6,290.25,318.58Z" fill="#fff"></path>
  <path d="M304.27,336.75a19.31,19.31,0,0,1-3.56-.36l-.11,0-.1-.07c-.24-.18-5.92-4.54-10.72-17.55l-.35-1,.91.29c.13,0,.8-.35,1.81-2.63.14-.65,1.39-5.42,8.06-6.27.8-.63,5.39-3.93,13.38-3.62a2.26,2.26,0,0,1,2.23,2.3v.23c-.06,2.13-.58,4.17-6.16,5.6l2.35,19,0,.1C311.9,333,310.52,336.75,304.27,336.75ZM301,335.43c7.71,1.38,9.68-2.22,10-2.89l-2.42-19.61.43-.11c5.74-1.37,5.79-3.25,5.83-4.75v-.24a1.29,1.29,0,0,0-1.27-1.27c-8.21-.34-12.77,3.44-12.81,3.48l-.12.1-.15,0c-6.48.76-7.32,5.33-7.35,5.52l0,.12c-.88,2-1.62,2.82-2.17,3.12C295.24,330.41,300.3,334.84,301,335.43Z" fill="#2f2e41"></path>
  <path d="M308.68,341.44s1.73-1.24-.56-5.76a15.19,15.19,0,0,1-7.32.22A26.62,26.62,0,0,0,308.68,341.44Z" fill="#f2b600"></path>
  <path d="M308.73,342l-.27-.13a26.64,26.64,0,0,1-8-5.66l-1-1.17,1.52.36a14.83,14.83,0,0,0,7.05-.22l.4-.13.19.38c2.42,4.77.62,6.24.41,6.39Zm-6.42-5.36a28.77,28.77,0,0,0,6.24,4.15c.27-.47.63-1.76-.7-4.54A15.81,15.81,0,0,1,302.31,336.66Z" fill="#2f2e41"></path>
  <path d="M273.59,370a.5.5,0,0,1,0-1l10.67-.77a.5.5,0,0,1,.07,1l-10.67.77Z" fill="#2f2e41"></path>
  <path d="M295.3,321.64a.49.49,0,0,1-.48-.36.5.5,0,0,1,.34-.62c.07,0,6.48-1.89,8.45-6.19a.41.41,0,0,1,.07-.11c.08-.1,2-2.36,4.13-1.25a.5.5,0,1,1-.46.89c-1.3-.67-2.62.69-2.87.95-2.19,4.68-8.76,6.59-9,6.67A.34.34,0,0,1,295.3,321.64Z" fill="#2f2e41"></path>
  <path d="M215.78,482.27S205.68,435,179.47,417.7c0,0-12.68-14.06-56.59-17.09,0,0-1.11-53.71,1.85-73,0,0-68.33-6.22-70.33,21.53,0,0-3.43,15.57,12.28,42.32L113,471s-18,.86-19.15,16.28c0,0-1.39,15.72,16.29,15.72H267.65s-2-13.72-5.4-20.43Z" fill="#e6e7e8"></path>
  <path d="M268.23,503.51H110.11c-5.71,0-10.08-1.61-13-4.79-4.35-4.74-3.83-11.2-3.8-11.47,1-13.78,15.25-16.26,18.81-16.67L66.25,391.69c-15.63-26.61-12.48-42-12.34-42.68a16.45,16.45,0,0,1,6.18-11.6c17-14.48,62.75-10.5,64.69-10.32l.53,0-.09.53c-2.77,18.11-2,67.21-1.85,72.49,42.4,3,55.44,16.11,56.42,17.16,24.78,16.36,35.33,59.85,36.39,64.46l46.38.31.14.27c3.43,6.71,5.37,20,5.45,20.59Zm-159-176c-15.29,0-37.94,1.66-48.53,10.66a15.59,15.59,0,0,0-5.85,11c0,.22-3.19,15.79,12.22,42l46.7,80.29-.82,0c-.72,0-17.57,1-18.67,15.82,0,.07-.49,6.31,3.55,10.72,2.71,3,6.83,4.46,12.24,4.46h157c-.41-2.62-2.25-13.57-5.13-19.43l-46.57-.31-.08-.39c-.1-.48-10.36-47.32-36.1-64.27l-.09-.08c-.13-.14-13.13-13.94-56.26-16.92l-.45,0v-.46c0-.53-1.06-53,1.78-72.58C122.44,327.91,116.73,327.51,109.27,327.51Z" fill="#2f2e41"></path>
  <g opacity="0.2">
    <path d="M122.88,400.61s-14-.95-23.3,0c0,0-17.77-25.51-31.4-39.17,0,0-22.08-24.69,16.07-29.36l37.07-2.36L96.47,342.58s-14.24,7.63-4.33,19.85c0,0,8,12.29,30.9,23.44Z"></path>
  </g>
  <path d="M219,411.08l86.09,27.77s9.3,2.95,9.3,8.85c0,0,38.32,11.2,37.14,29.47,0,0,2.36,20.93-23,55.12l5.31,48.93s-36.26,0-51.29,12.09l-1.77-8.84-3.24,1.76s-20-29.47-18.57-48.93l11.5-16.5s-3.91-30.22-8.2-38.22l-46.47-.31S207.39,437,179.47,417.7C179.47,417.7,200.91,411.63,219,411.08Z" fill="#2f2e41"></path>
  <g opacity="0.2">
    <path d="M270.62,428.24h-.05l-75.08-7.59a.5.5,0,0,1-.45-.55.52.52,0,0,1,.55-.45l75.08,7.6a.49.49,0,0,1,.45.54A.51.51,0,0,1,270.62,428.24Z"></path>
  </g>
  <path d="M280.4,494.94a.5.5,0,0,1-.5-.5c0-8.28-1.91-11.5-3.5-12.74a3.38,3.38,0,0,0-2.69-.78.48.48,0,0,1-.43-.09.49.49,0,0,1-.19-.39,7.77,7.77,0,0,0-2.75-5.86c-12-11-58.57-7.11-59-7.07a.5.5,0,0,1-.54-.46.49.49,0,0,1,.45-.54c1.93-.17,47.48-4,59.81,7.34a8.78,8.78,0,0,1,3.05,6,4.75,4.75,0,0,1,2.94,1c2.58,2,3.89,6.56,3.89,13.53A.51.51,0,0,1,280.4,494.94Z" fill="#fff"></path>
  <path d="M296.57,586.92a.51.51,0,0,1-.49-.41l-14.75-79.7a.5.5,0,0,1,.4-.58.51.51,0,0,1,.59.4l14.75,79.7a.5.5,0,0,1-.4.58Z" fill="#fff"></path>
  <g opacity="0.2">
    <path d="M280.76,585a.5.5,0,0,1-.49-.42c-.1-.58-9.42-57.36-10.32-63.68a.5.5,0,0,1,.43-.57.51.51,0,0,1,.56.43c.9,6.31,10.22,63.08,10.32,63.65a.51.51,0,0,1-.42.58Z"></path>
  </g>
  <g opacity="0.2">
    <path d="M328.51,532.79a.49.49,0,0,1-.49-.43l-9.55-76.15a.5.5,0,0,1,1-.12L329,532.23a.5.5,0,0,1-.43.56Z"></path>
  </g>
  <path d="M282.53,593.31s.15,4.13,20.29,1.13v-9.71S289.09,587.61,282.53,593.31Z" fill="#2f2e41"></path>
  <g opacity="0.2">
    <path d="M282.53,593.31s.15,4.13,20.29,1.13v-9.71S289.09,587.61,282.53,593.31Z"></path>
  </g>
  <path d="M333.82,581.22s.72,10.36,3.58,16.36c0,0-22.58.57-34.58,9.29V584.73S314.24,581.44,333.82,581.22Z" fill="#fff"></path>
  <path d="M302.32,607.85v-23.5l.37-.1c.11,0,11.7-3.31,31.12-3.53h.47l0,.47c0,.1.74,10.33,3.53,16.18l.33.69-.77,0c-.23,0-22.56.67-34.29,9.19Zm1-22.74v20.8c10.89-7.32,29.38-8.61,33.32-8.8-2.32-5.37-3.11-13.35-3.28-15.38C316.26,582,305.4,584.57,303.32,585.11Z" fill="#2f2e41"></path>
  <path d="M302.82,606.87l-.85,7s20,13,28.27,1.37a11.66,11.66,0,0,0,1.54-3.27c.62-1.94,2.71-5.92,9.62-6.25a36,36,0,0,1-4-8.14S315,598,302.82,606.87Z" fill="#e6e7e8"></path>
  <path d="M320.18,620.55c-8.75,0-18.35-6.17-18.49-6.26l-.26-.18.92-7.52.18-.13c12.13-8.85,34.63-9.37,34.86-9.38h.36l.12.35a36.28,36.28,0,0,0,3.94,8l.52.74-.91,0c-6.44.3-8.5,3.83-9.16,5.9a11.9,11.9,0,0,1-1.61,3.41C328,619.27,324.17,620.55,320.18,620.55Zm-17.68-6.94c2.35,1.46,19.9,11.79,27.34,1.34a11.28,11.28,0,0,0,1.47-3.13c.56-1.8,2.58-5.9,9.2-6.53a38.9,38.9,0,0,1-3.46-7.2c-2.91.11-22.68,1.11-33.76,9Z" fill="#2f2e41"></path>
  <path d="M302,613.87,300.22,628s22.6,1.23,39,5.31c0,0,15.94,4.94,28.53-3.09,0,0,6.67-4.57,13.22-4A102.81,102.81,0,0,1,364.27,621a41.26,41.26,0,0,1-13.61-9.56c-2.44-2.55-6.09-5.7-9.26-5.73,0,0-7.94-.05-9.62,6.25,0,0-2.38,10.62-16.26,7.61C315.52,619.58,307.67,617.86,302,613.87Z" fill="#f2b600"></path>
  <path d="M350.54,635.32a43.46,43.46,0,0,1-11.44-1.5c-16.17-4-38.68-5.28-38.91-5.29l-.53,0L301.57,613l.68.48c5.56,3.89,13.3,5.61,13.37,5.63,13.2,2.86,15.58-6.82,15.67-7.23,1.75-6.57,9.9-6.64,10.11-6.64h0c3.34,0,7.07,3.22,9.62,5.89a40.53,40.53,0,0,0,13.45,9.44,103.24,103.24,0,0,0,16.62,5.26l-.15,1c-6.3-.59-12.82,3.82-12.88,3.86A32.5,32.5,0,0,1,350.54,635.32Zm-49.76-7.76c3.52.22,23.7,1.6,38.58,5.29.19.06,15.89,4.78,28.14-3a26.49,26.49,0,0,1,9.84-3.91,98.29,98.29,0,0,1-13.26-4.45,41.36,41.36,0,0,1-13.78-9.67c-2.42-2.53-5.92-5.55-8.91-5.58h0c-.15,0-7.58.06-9.13,5.88,0,.09-2.63,11-16.85,8a44.84,44.84,0,0,1-13.05-5.33Z" fill="#2f2e41"></path>
  <path d="M259,537.3l-8.55,9.27s1.32,20.14,17.25,29.25l2.12-2.68S256.51,548.33,259,537.3Z" fill="#fff"></path>
  <path d="M267.78,576.47l-.37-.22c-16-9.14-17.49-29.44-17.51-29.64v-.22l9.95-10.79-.4,1.81c-2.37,10.72,10.64,35.25,10.77,35.49l.15.29Zm-16.86-29.72c.2,2.14,2.3,20,16.61,28.42l1.65-2.08c-1.48-2.81-11.94-23.17-11-34.25Z" fill="#2f2e41"></path>
  <path d="M267.65,575.82l-2.14,5.4s-20.52-11-19.69-29.47l4.58-5.18S251.49,566,267.65,575.82Z" fill="#e6e7e8"></path>
  <path d="M265.77,581.93l-.49-.27c-.21-.11-20.8-11.37-19.95-29.93v-.18l5.5-6.22.07,1.21c0,.2,1.27,19.29,17,28.85l.36.22Zm-19.45-30c-.62,16.24,15.87,26.74,18.94,28.55L267,576c-13.62-8.51-16.47-23.94-17-28.27Z" fill="#2f2e41"></path>
  <path d="M332.14,300.94h8.91a1.2,1.2,0,0,1,.91,2c-1.08,1.16-3.38,2.67-8.28,4.07,0,0,1.26,2.64,0,4.85,0,0,3.9,3.86-2.44,9.3,0,0,3.5,2.47.06,5a3.1,3.1,0,0,1-3.11.42c-1-.46-1.67-1.44.69-3.55,0,0-4.48-2.24-.11-6.6a.35.35,0,0,0-.28-.6c-1.87.23-5.3.29-3.88-2.54,0,0,.9-2.63,6.93-5.88Z" fill="#fff"></path>
  <path d="M329.36,327.35a3.33,3.33,0,0,1-1.38-.3,1.8,1.8,0,0,1-1.19-1.35c-.12-.75.3-1.59,1.28-2.58a4,4,0,0,1-1.67-2.54c-.21-1.32.37-2.73,1.73-4.18-2.12.19-3.49-.12-4.06-.95a2.22,2.22,0,0,1,.09-2.36c0-.06,1-2.73,6.91-6l.61-6.68h9.37a1.71,1.71,0,0,1,1.57,1,1.64,1.64,0,0,1-.3,1.79c-1.42,1.54-4.11,2.9-8,4.06a6.07,6.07,0,0,1-.06,4.46,5.24,5.24,0,0,1,1.08,3.4c-.07,2-1.2,4-3.36,5.95a3.85,3.85,0,0,1,1.32,2.59,3.59,3.59,0,0,1-1.72,2.86A3.71,3.71,0,0,1,329.36,327.35Zm-.82-12a.83.83,0,0,1,.75.47.87.87,0,0,1-.17,1c-1.32,1.32-1.9,2.53-1.73,3.61a3.45,3.45,0,0,0,1.71,2.18l.66.33-.55.49c-1.4,1.25-1.47,1.9-1.44,2.12s.25.43.62.6a2.62,2.62,0,0,0,2.61-.36,2.67,2.67,0,0,0,1.32-2,3.37,3.37,0,0,0-1.37-2.19l-.52-.37.48-.42c2.22-1.9,3.38-3.78,3.45-5.6a4.13,4.13,0,0,0-1-3l-.26-.27.18-.33a5.33,5.33,0,0,0,0-4.4l-.25-.53.57-.16c4.95-1.41,7.11-2.92,8-3.93a.64.64,0,0,0,.11-.71.7.7,0,0,0-.65-.43h-8.46l-.58,6.3-.23.13c-5.73,3.08-6.69,5.58-6.7,5.61-.24.48-.44,1-.2,1.4.37.52,1.7.69,3.55.48Z" fill="#2f2e41"></path>
  <path d="M644.67,404.61v1a9.58,9.58,0,0,1-2.89,6.87l-1.8,1.75a15.14,15.14,0,0,1-9.8,4.3l-87.08,4.63s-23.35-1.72-21,29.14c0,0,1.72,28.07,5.57,40.5L504.1,577.46l30,14.15s21,9.85,24.43-4.72L564.46,565s28.36-10.71,29.21-23.57l-8.57-56.14s-2.14-10.71,9-10.29l36.86.86s12.63-72.86,76.17-73.71a39.58,39.58,0,0,0-3.34-13.2l-40.9,12.9S647.67,405.9,644.67,404.61Z" fill="#2f2e41"></path>
  <g opacity="0.2">
    <path d="M650.68,409.5a.25.25,0,0,1,0-.5c.34,0,34.17-1.6,47.88-10a.26.26,0,0,1,.35.09.26.26,0,0,1-.08.34C685,407.9,651,409.48,650.69,409.5Z"></path>
  </g>
  <g opacity="0.2">
    <path d="M530.31,483.49a.45.45,0,0,1-.16,0,.51.51,0,0,1-.31-.64l7.72-21.88A24.4,24.4,0,0,1,552.5,446l57.34-20.3a.5.5,0,0,1,.64.3.51.51,0,0,1-.31.64l-57.34,20.3a23.41,23.41,0,0,0-14.32,14.34l-7.73,21.88A.49.49,0,0,1,530.31,483.49Z"></path>
  </g>
  <g opacity="0.2">
    <path d="M564.46,565.53h-.13a.5.5,0,0,1-.36-.61l20.65-79.71a.49.49,0,0,1,.61-.36.5.5,0,0,1,.36.61l-20.65,79.71A.5.5,0,0,1,564.46,565.53Z"></path>
  </g>
  <path d="M557.21,527.2h-.09a.49.49,0,0,1-.4-.58c.06-.32,5.91-32.48,15-48.87a14,14,0,0,0,1.83-7.17c-.07-2.89,1.49-4.63,4.38-4.9a4.64,4.64,0,0,0,4.3-4.12v0a2.15,2.15,0,0,1,.44-1.79c1.95-2.74,11.59-6.87,54.11-3.72a.49.49,0,0,1,.46.53.5.5,0,0,1-.53.46c-43.61-3.23-51.75,1.24-53.23,3.31a1.14,1.14,0,0,0-.28,1,.59.59,0,0,1,0,.23v.14a5.66,5.66,0,0,1-5.2,5c-2.4.22-3.53,1.49-3.48,3.88a15.12,15.12,0,0,1-2,7.68c-9,16.24-14.87,48.24-14.93,48.56A.49.49,0,0,1,557.21,527.2Z" fill="#fff"></path>
  <g opacity="0.2">
    <path d="M553.6,575.26c-15.16,0-39.56-13.21-40.68-13.82a.5.5,0,0,1,.48-.88c.3.16,29.61,16,43.72,13.4a.5.5,0,0,1,.18,1A19.76,19.76,0,0,1,553.6,575.26Z"></path>
  </g>
  <path d="M528.33,611.49h0c-5,6-15.18,7-15.18,7C492.74,617.49,500,609,500,609c3.83-8.49-5.09-9.48-5.09-9.48,4.75-4,10.17-21.61,10.17-21.61l23.28,11-1.75,4.9A24.84,24.84,0,0,0,528.33,611.49Z" fill="#fff"></path>
  <path d="M513.21,619c-8.45-.41-13.35-2.13-14.64-5.12-1.05-2.42.66-4.73,1-5.13,1.06-2.38,1.17-4.33.32-5.82-1.4-2.46-5-2.89-5-2.9l-1.16-.13.89-.75c4.58-3.86,10-21.2,10-21.37l.17-.55L529,588.63l-1.9,5.32a24.15,24.15,0,0,0,1.67,17.24l.29.28-.3.35C523.66,617.9,513.63,619,513.21,619Zm-17.28-19.78a7.58,7.58,0,0,1,4.81,3.21c1,1.79.92,4.08-.3,6.79l-.08.12s-1.76,2.11-.87,4.15c.78,1.79,3.78,4,13.69,4.52,0,0,9.68-1,14.56-6.56a25.31,25.31,0,0,1-1.63-17.79l1.61-4.51-22.35-10.53C504.44,581.52,500.11,594.67,495.93,599.21Z" fill="#2f2e41"></path>
  <path d="M530.09,623.23c-30.45,5-71.39,0-71.39,0,1-5.49,11.73-8.74,11.73-8.74,12.73-4.49,24.46-15,24.46-15s8.92,1,5.09,9.48c0,0-7.24,8.49,13.18,9.49,0,0,10.19-1,15.18-7C530.74,619.21,530.09,623.23,530.09,623.23Z" fill="#f2b600"></path>
  <path d="M498.14,625.94a370.9,370.9,0,0,1-39.5-2.21l-.53-.06.1-.53c1-5.72,11.63-9,12.08-9.12,12.46-4.4,24.15-14.76,24.27-14.87l.16-.15.23,0c.16,0,4.13.49,5.79,3.39,1,1.79.92,4.08-.3,6.79l-.08.12s-1.76,2.11-.87,4.15c.78,1.79,3.78,4,13.69,4.52,0,0,10-1.06,14.78-6.82l.58-.7.28.88c2.4,7.73,1.79,11.79,1.76,11.95l-.05.36-.36.06A204.85,204.85,0,0,1,498.14,625.94Zm-38.82-3.14c5,.57,42.25,4.51,70.31,0a30.25,30.25,0,0,0-1.51-10.3c-5.21,5.48-14.5,6.45-14.91,6.49-8.45-.41-13.35-2.13-14.64-5.12-1.05-2.42.66-4.73,1-5.13,1.06-2.38,1.17-4.33.32-5.82-1.2-2.11-4-2.73-4.82-2.87-1.53,1.33-12.62,10.74-24.45,14.92C470.48,615,460.82,618,459.32,622.8Z" fill="#2f2e41"></path>
  <path d="M528.34,632.37h-8.25a5.75,5.75,0,0,1-3.73-1.34,3.51,3.51,0,0,0-5.05-.06,5.73,5.73,0,0,1-3.79,1.4H464.44c-9.23-.5-5.74-9-5.74-9s40.94,5,71.39,0C532.84,631.88,528.34,632.37,528.34,632.37Z" fill="#fff"></path>
  <path d="M528.37,632.87h-8.28a6.21,6.21,0,0,1-4.05-1.46,3,3,0,0,0-4.4-.06,6.26,6.26,0,0,1-4.12,1.52H464.44c-2.93-.16-4.95-1.1-6-2.81-1.79-2.84-.24-6.7-.17-6.86l.14-.35.38,0c.41.05,41.22,4.92,71.25,0l.42-.06.14.4c1.18,3.65,1.22,6.37.11,8.08a3.4,3.4,0,0,1-2.29,1.56ZM459,623.93c-.32,1-1,3.65.22,5.6.89,1.41,2.65,2.2,5.21,2.34h43a5.21,5.21,0,0,0,3.46-1.28,4,4,0,0,1,5.71.06,5.17,5.17,0,0,0,3.4,1.22h8.21a2.43,2.43,0,0,0,1.56-1.13c.61-1,1.07-2.91-.12-6.79C501.21,628.52,463.33,624.42,459,623.93Z" fill="#2f2e41"></path>
  <path d="M631,475.43H600.07a12.62,12.62,0,0,0-12.62,12.62h0a12.63,12.63,0,0,0,12.62,12.63H732.62a28.87,28.87,0,0,0,7.19-.82,12.71,12.71,0,0,0,8.85-16.13c-3.92-13.07-16.47-13.17-19.08-13.05a.26.26,0,0,1-.24-.39l49.29-85.48s22.86-36.68-2.49-50.86a29.27,29.27,0,0,0-13.26-3.58l-58.69-2.18a34.42,34.42,0,0,0-16.59,3.42,22.49,22.49,0,0,0-8.85,7.22l28.38,63.35S647.06,399.42,631,475.43Z" fill="#e6e7e8"></path>
  <path d="M732.62,501.18H600.07a13.13,13.13,0,0,1,0-26.25h30.49c8.4-39.18,28.71-57,44.29-65.08a72.45,72.45,0,0,1,31.51-8.18l-28.18-62.89.16-.23a22.74,22.74,0,0,1,9-7.39,35.06,35.06,0,0,1,16.83-3.47l58.69,2.18a29.93,29.93,0,0,1,13.48,3.64,22.44,22.44,0,0,1,11.35,14.34c4.19,16.3-8.55,37-8.68,37.22L730,470.17c3.34-.05,15.31.6,19.15,13.41a13.64,13.64,0,0,1-1.15,10.6,12.81,12.81,0,0,1-8.06,6.17A29.75,29.75,0,0,1,732.62,501.18ZM600.07,475.93a12.13,12.13,0,0,0,0,24.25H732.62a28.68,28.68,0,0,0,7.06-.8,11.83,11.83,0,0,0,7.44-5.69,12.67,12.67,0,0,0,1.06-9.82c-3.82-12.74-16.15-12.8-18.58-12.69a.73.73,0,0,1-.68-.36.75.75,0,0,1,0-.78l49.28-85.48c.14-.22,12.66-20.58,8.57-36.46a21.5,21.5,0,0,0-10.87-13.72,29,29,0,0,0-13-3.51l-58.69-2.18a34,34,0,0,0-16.35,3.36,22.07,22.07,0,0,0-8.5,6.83l28.6,63.83-.81,0a70,70,0,0,0-31.84,8.09c-15.43,8-35.55,25.72-43.82,64.76l-.08.4Z" fill="#2f2e41"></path>
  <rect x="256.17" y="395.67" width="334.39" height="16.82" rx="8.41" fill="#e6e7e8"></rect>
  <path d="M582.15,413H264.58a8.92,8.92,0,0,1,0-17.83H582.15a8.92,8.92,0,0,1,0,17.83ZM264.58,396.17a7.92,7.92,0,0,0,0,15.83H582.15a7.92,7.92,0,0,0,0-15.83Z" fill="#2f2e41"></path>
  <g opacity="0.2">
    <path d="M742.87,400.53s-26.15-.64-35.74,1.65a55.06,55.06,0,0,1-3.55-7.94s36.08-16.22,46.71-32.08a12.53,12.53,0,0,0-3.57-17.41C740.43,340.6,729.72,334,721,331l37.5,2s24.86,2.1,20.57,18.72c0,0-4.6,11.59-18.32,25a90.62,90.62,0,0,0-6.58,7.13C750.44,388.3,745.25,395.09,742.87,400.53Z"></path>
  </g>
  <path d="M577,351.71,555.61,317.1s-31.29-13.94-27.43-17c0,0-3.47-2.32-2.12-5.8a3.65,3.65,0,0,1-1.93-4s-.39-3.09,18.73,5.21c0,0-12.94-7.12-11.2-9.35,0,0,.77-3.2,26.07,9.54,0,0-.47-7.09,3.58-9.81a.91.91,0,0,1,1.4.76c0,3.46.53,12.19,6,16.77l28.78,27.1S591.15,340.39,577,351.71Z" fill="#fff"></path>
  <path d="M576.82,352.45,555.26,317.5c-3.41-1.53-27.35-12.38-27.9-16.61a1.31,1.31,0,0,1,.12-.74c-.9-.77-2.87-2.84-2-5.65a4.1,4.1,0,0,1-1.82-4.33.89.89,0,0,1,.38-.67c1.26-.94,5.6.05,12.94,2.93-2.79-1.86-5.61-4.06-5.92-5.56a1.36,1.36,0,0,1,.19-1.05,1,1,0,0,1,.47-.41c2.27-1.05,11.32,2.28,25.52,9.39,0-2,.4-7.1,3.83-9.4a1.37,1.37,0,0,1,1.42-.07,1.43,1.43,0,0,1,.75,1.25c0,3.45.53,11.95,5.85,16.38l29.1,27.4-.22.35c-.06.1-6.57,10.15-20.68,21.39Zm-52.2-62.16v0a3.14,3.14,0,0,0,1.65,3.51l.42.2-.17.43c-1.18,3.06,1.81,5.11,1.94,5.2l.57.38-.53.43a.28.28,0,0,0-.14.31c.36,2.81,17,11.23,27.45,15.87l.14.07.08.13L577.08,351c12.22-9.82,18.54-18.63,19.79-20.45l-28.48-26.8c-5.62-4.69-6.2-13.55-6.18-17.14a.42.42,0,0,0-.22-.36.4.4,0,0,0-.4,0c-3.77,2.53-3.37,9.29-3.36,9.36l.06.87-.78-.39c-21.76-11-25.06-9.94-25.41-9.75l-.05.06a.33.33,0,0,0,0,.29c.38,1.82,7,6.07,11.09,8.32l-.44.9C527.14,289.15,524.87,290.12,524.62,290.29Zm7.45-4Z" fill="#2f2e41"></path>
  <path d="M551,305.59a.54.54,0,0,1-.21,0c-7.21-3.33-11.54-1.75-11.58-1.73a.53.53,0,0,1-.41,0c-8.37-4.28-10.29-3.32-10.31-3.31a.49.49,0,0,1-.69-.1.52.52,0,0,1,.1-.71c.34-.26,2.41-1.31,11.17,3.13,1-.31,5.35-1.3,12.14,1.83a.5.5,0,0,1-.21,1Z" fill="#2f2e41"></path>
  <path d="M557.73,303a.5.5,0,0,1-.48-.34c-1.78-5.46-.06-7.21.15-7.39a.49.49,0,0,1,.7,0,.5.5,0,0,1,0,.7s-1.43,1.54.14,6.34a.51.51,0,0,1-.32.63A.47.47,0,0,1,557.73,303Z" fill="#2f2e41"></path>
  <line x1="526.06" y1="294.27" x2="540.81" y2="299.05" fill="#fff"></line>
  <rect x="532.94" y="288.91" width="1" height="15.51" transform="translate(86.77 712.66) rotate(-72.04)" fill="#2f2e41"></rect>
  <rect x="593.7" y="231.23" width="36.61" height="55.8" rx="18.31" transform="translate(64.76 -118) rotate(11.62)" fill="#fff"></rect>
  <path d="M610.08,287.34a18.82,18.82,0,0,1-18.43-22.6l3.86-18.8a18.81,18.81,0,0,1,36.85,7.58l-3.87,18.8A18.85,18.85,0,0,1,610.08,287.34Zm3.85-55.42a17.84,17.84,0,0,0-17.44,14.23l-3.86,18.79a17.8,17.8,0,1,0,34.88,7.17l3.87-18.79a17.83,17.83,0,0,0-13.86-21A17.58,17.58,0,0,0,613.93,231.92Z" fill="#2f2e41"></path>
  <path d="M601.45,240.27c-1.41.89-3.61,2.91-5.77,7.37,0,0-4.07-12.43,5.84-17.27a50.9,50.9,0,0,0,13.07-5.08s14.51-8.22,23.46,4.6c0,0,11.61,9.92,9.92,25.4,0,0-1,13.55,8.23,20.08,0,0,26.85,18.63,12.33,46.2,0,0-2.17-30-31.44-35.8A17.53,17.53,0,0,1,625,267.63s3.54-15.59-8.74-21.8a1.83,1.83,0,0,0-.92-.18c-1.69.07-7.56-.05-11.53-5A1.8,1.8,0,0,0,601.45,240.27Z" fill="#2f2e41"></path>
  <path d="M602.33,285.11s-9.52,32.84,1.37,36.46l10.4-19.35V286.38S607.84,287.8,602.33,285.11Z" fill="#2f2e41"></path>
  <path d="M614.1,302.22s8.87-17.13,24.44-16.13a17.39,17.39,0,0,1-12-9.57,18.16,18.16,0,0,1-12.44,9.86Z" fill="#fff"></path>
  <path d="M613.6,304.27V286l.4-.08a17.79,17.79,0,0,0,12.08-9.57l.43-1,.48,1a17,17,0,0,0,11.63,9.29l-.11,1c-15-1-23.88,15.69-24,15.86Zm1-17.48v13.6c2.48-3.91,9.74-13.73,20.78-14.76a18,18,0,0,1-8.83-8A18.53,18.53,0,0,1,614.6,286.79Z" fill="#2f2e41"></path>
  <path d="M564.8,359.2s19.39-7.39,38.9-37.63l10.4-19.35s8-16.57,24.44-16.13c0,0,24.92,2,30,35.48l1.05,4.88a13.2,13.2,0,0,0,3.65,6.64c3.18,3.14,8.31,8.45,11.22,12.81a8.41,8.41,0,0,0,3.25,2.82c.79.3,1.75,1.27,2.56,3.83a8,8,0,0,0,3.56,4.42,5.77,5.77,0,0,1,2.64,4.14,7.84,7.84,0,0,0,1.76,3.79c4.08,4.71,14.11,17.8,5.57,24.08l-40.9,12.9s-22.64,6.76-22.24-1c0,0,.56-3.57-2.11-10.12a11.84,11.84,0,0,1-2.54-6.15,6.7,6.7,0,0,0-2.66-4.61,44.27,44.27,0,0,1-7-6.32s-36.44,21.69-63.09,24.79a6.06,6.06,0,0,1-4.68-1.46c-3.61-3.13-10.13-11-9.42-26.16a6,6,0,0,1,2-4.16l5.63-5S564.8,354.83,564.8,359.2Z" fill="#f2b600"></path>
  <path d="M647.23,405.1c-2.44,0-4.56-.36-5.81-1.34a3.26,3.26,0,0,1-1.27-2.89c0-.09.49-3.57-2-9.84a12.34,12.34,0,0,1-2.6-6.35,6.28,6.28,0,0,0-2.47-4.27,46.15,46.15,0,0,1-6.82-6.08c-3.87,2.25-37.89,21.74-62.93,24.65a6.63,6.63,0,0,1-5.07-1.58c-3.89-3.39-10.31-11.34-9.59-26.56a6.49,6.49,0,0,1,2.17-4.51l5.64-5c1-.83,5.88-4.85,7.94-3.9a1.53,1.53,0,0,1,.84,1.08c3.4-1.54,20.77-10.38,38.06-37.17L613.66,302c.07-.14,8.15-16.4,24.25-16.4h.65c.28,0,25.39,2.45,30.47,35.91l1,4.84a12.71,12.71,0,0,0,3.51,6.4c2.93,2.88,8.29,8.4,11.28,12.88a7.94,7.94,0,0,0,3,2.63c1.17.45,2.13,1.85,2.85,4.15a7.5,7.5,0,0,0,3.35,4.14A6.27,6.27,0,0,1,697,361a7.44,7.44,0,0,0,1.65,3.56c2.95,3.4,9.73,12.06,9,18.89a8.22,8.22,0,0,1-3.49,5.91l-.14.08L663,402.36C662.53,402.51,653.74,405.1,647.23,405.1Zm-20.8-32.05.27.31a44.46,44.46,0,0,0,6.93,6.25,7.23,7.23,0,0,1,2.87,4.95,11.42,11.42,0,0,0,2.41,5.87l.1.15c2.68,6.6,2.15,10.24,2.13,10.39a2.28,2.28,0,0,0,.89,2c4.21,3.31,20.55-1.51,20.71-1.56l40.82-12.88a7.31,7.31,0,0,0,3-5.17c.72-6.44-5.87-14.82-8.74-18.13a8.41,8.41,0,0,1-1.87-4,5.31,5.31,0,0,0-2.41-3.8,8.54,8.54,0,0,1-3.78-4.7c-.78-2.49-1.66-3.28-2.26-3.52a8.81,8.81,0,0,1-3.49-3c-2.94-4.4-8.25-9.86-11.15-12.72a13.78,13.78,0,0,1-3.79-6.9L668,321.68c-4.95-32.68-29.29-35.08-29.54-35.1-15.84-.39-23.87,15.7-24,15.86l-10.41,19.37c-19.4,30.06-39,37.78-39.16,37.85l-.68.26v-.72c0-.5-.11-.8-.34-.9-1.1-.52-4.68,1.88-6.86,3.74l-5.63,5a5.53,5.53,0,0,0-1.84,3.82c-.7,14.8,5.49,22.49,9.24,25.75a5.61,5.61,0,0,0,4.3,1.34c26.24-3,62.53-24.5,62.9-24.72Z" fill="#2f2e41"></path>
  <path d="M577.11,393.05a.5.5,0,0,1-.35-.14c-15.9-15.9-12.49-33.64-12.45-33.82a.49.49,0,0,1,.59-.38.5.5,0,0,1,.39.59c0,.17-3.32,17.4,12.17,32.9a.5.5,0,0,1-.35.85Z" fill="#2f2e41"></path>
  <path d="M626.32,374.19a.5.5,0,0,1-.25-.93c.2-.12,19.85-11.68,28.81-31.74a.5.5,0,0,1,.92.41c-9.1,20.36-29,32.08-29.23,32.19A.43.43,0,0,1,626.32,374.19Z" fill="#2f2e41"></path>
  <path d="M658.52,333.49l-.12,0a.5.5,0,0,1-.37-.6c0-.17,4-17.08-3.14-31.43a.5.5,0,0,1,.23-.67.51.51,0,0,1,.67.22c7.34,14.69,3.26,31.94,3.21,32.11A.5.5,0,0,1,658.52,333.49Z" fill="#2f2e41"></path>
  <path d="M661.76,311.91a.49.49,0,0,1-.49-.4c-2-10.77-5.85-18.15-11.51-22a17.85,17.85,0,0,0-13.59-2.46,13.07,13.07,0,0,1-8.62-1c-9.73-5-6.47-19.41-6.43-19.55,4.88-15.6-5.54-20.25-6-20.44a.5.5,0,0,1-.26-.66.5.5,0,0,1,.65-.26c.12.05,11.72,5.17,6.56,21.62,0,.1-3.11,13.76,5.93,18.4a12.12,12.12,0,0,0,8,.9,18.82,18.82,0,0,1,14.35,2.61c5.9,4,9.91,11.57,11.94,22.6a.5.5,0,0,1-.4.59Z" fill="#2f2e41"></path>
  <rect x="276.84" y="418.4" width="287.61" height="6.39" fill="#e6e7e8"></rect>
  <path d="M565,425.3H276.34v-7.4H565Zm-287.62-1H564v-5.4H277.34Z" fill="#2f2e41"></path>
  <polygon points="273.4 412.5 251.25 632.82 262.32 632.82 283.24 412.5 273.4 412.5" fill="#e6e7e8"></polygon>
  <path d="M262.78,633.32H250.69l.06-.55L273,412h10.84l-.05.54Zm-11-1h10.07L282.69,413h-8.84Z" fill="#2f2e41"></path>
  <polygon points="568.16 412.5 590.32 632.82 579.24 632.82 558.32 412.5 568.16 412.5" fill="#e6e7e8"></polygon>
  <path d="M590.87,633.32H578.79L557.77,412h10.85l0,.45Zm-11.17-1h10.06L567.71,413h-8.84Z" fill="#2f2e41"></path>
  <path d="M175.34,264.25s-1.11,10.37-6,18.49c0,0,6.63,20.17,27,21.3a3.64,3.64,0,0,0,3.54-1.9c.69-1.41.69-3.71-2.06-7.23,0,0-1.42-.6-1.78-4.53l-7-16-9.92-10.82-2.61-1.78Z" fill="#fff"></path>
  <path d="M196.63,304.55h-.27C175.88,303.4,169,283.1,168.9,282.89l-.07-.22.12-.19c4.74-7.92,5.88-18.18,5.89-18.28l0-.17,1.47-3,3.16,2.18,10,11,7.05,16.12c.32,3.48,1.49,4.12,1.5,4.12l.18.15c2.42,3.08,3.13,5.7,2.12,7.76A4.08,4.08,0,0,1,196.63,304.55Zm-26.7-21.76c.78,2.13,7.81,19.71,26.49,20.75a3.14,3.14,0,0,0,3.07-1.62c.8-1.65.12-3.94-2-6.63-.42-.26-1.6-1.29-1.93-4.78l-6.95-15.83L178.83,264l-2.09-1.42-.91,1.85C175.7,265.44,174.45,275.11,169.93,282.79Z" fill="#2f2e41"></path>
  <rect x="179.16" y="219.89" width="41.73" height="67.01" rx="20.87" fill="#fff"></rect>
  <path d="M200,287.4A21.39,21.39,0,0,1,178.66,266V240.75a21.37,21.37,0,0,1,42.73,0V266A21.4,21.4,0,0,1,200,287.4Zm0-67a20.38,20.38,0,0,0-20.36,20.36V266a20.37,20.37,0,1,0,40.73,0V240.75A20.39,20.39,0,0,0,200,220.39Z" fill="#2f2e41"></path>
  <path d="M172.86,248.14s-9.91-20.63,3.69-28.25c0,0,.78-5.92,12.1-4.42,0,0,8.75.85,16.44-2.35,0,0,10-6.83,17.94,2.35,0,0,7.32,6.49.24,15.38a5.54,5.54,0,0,1-6.46,1.67,12.33,12.33,0,0,0-6.59-.82s-9.61,1.92-17.73-3.63c0,0-3.84-3-5.55-.86,0,0-2.35,1.93.43,7,0,0,3.14,6.1-1.76,13.66a7,7,0,0,0-1.07,4.21l1.12,17.58a17.16,17.16,0,0,0,2.56,6.93,4.4,4.4,0,0,0,7.67-.47l2.47-5.14a4.88,4.88,0,0,1,5.27-2.7c4.43.8,12,1.72,17.13,0l.13,8.08a14.09,14.09,0,0,1-3.26,10.49c-3,3.18-10.24,4.29-18.52,4,0,0-20-.73-20-24.82v-4.44Z" fill="#2f2e41"></path>
  <ellipse cx="176.55" cy="255.4" rx="6.22" ry="9.03" fill="#fff"></ellipse>
  <path d="M176.55,264.93c-3.71,0-6.72-4.28-6.72-9.53s3-9.53,6.72-9.53,6.72,4.28,6.72,9.53S180.25,264.93,176.55,264.93Zm0-18.06c-3.16,0-5.72,3.83-5.72,8.53s2.56,8.53,5.72,8.53,5.72-3.83,5.72-8.53S179.7,246.87,176.55,246.87Z" fill="#2f2e41"></path>
  <path d="M311.87,384.7h0l-21.62-1.87a.48.48,0,0,1-.45-.54.5.5,0,0,1,.54-.45l21.61,1.86a.5.5,0,0,1,0,1Z" fill="#2f2e41"></path>
  <path d="M302.79,391h-.05l-12.54-1.3a.5.5,0,0,1,.11-1L302.84,390a.5.5,0,0,1,0,1Z" fill="#2f2e41"></path>
  <line x1="328.77" y1="316.45" x2="333.68" y2="311.84" fill="#fff"></line>
  <rect x="327.86" y="313.65" width="6.73" height="1" transform="translate(-125.28 311.71) rotate(-43.18)" fill="#2f2e41"></rect>
  <line x1="328.88" y1="323.05" x2="331.24" y2="321.14" fill="#fff"></line>
  <polygon points="329.19 323.44 328.57 322.65 330.93 320.75 331.55 321.53 329.19 323.44" fill="#2f2e41"></polygon>
  <path d="M448.15,350.82a.52.52,0,0,1-.33-.12.51.51,0,0,1-.05-.71c.13-.15,3.22-3.84-.07-10.17,0-.07-3.21-6.58,1.75-9.46a.51.51,0,0,1,.69.18.52.52,0,0,1-.19.69c-4.15,2.4-1.47,7.91-1.35,8.14,3.6,7,.08,11.11-.08,11.28A.48.48,0,0,1,448.15,350.82Z" fill="#2f2e41"></path>
  <path d="M456.44,350.82a.49.49,0,0,1-.32-.12.51.51,0,0,1-.05-.71c.13-.15,3.21-3.84-.07-10.17,0-.07-3.22-6.58,1.74-9.46a.51.51,0,0,1,.69.18.51.51,0,0,1-.18.69c-4.15,2.4-1.48,7.91-1.36,8.14,3.61,7,.08,11.11-.07,11.28A.52.52,0,0,1,456.44,350.82Z" fill="#2f2e41"></path>
  <path d="M465,350.82a.52.52,0,0,1-.33-.12.51.51,0,0,1-.05-.71c.14-.15,3.22-3.84-.06-10.17,0-.07-3.22-6.58,1.74-9.46a.5.5,0,1,1,.5.87c-4.14,2.4-1.47,7.91-1.35,8.14,3.6,7,.08,11.11-.07,11.28A.52.52,0,0,1,465,350.82Z" fill="#2f2e41"></path>
</svg>
